<?xml version="1.0" encoding="utf-8" standalone="no"?>
<!DOCTYPE svg PUBLIC "-//W3C//DTD SVG 1.1//EN"
  "http://www.w3.org/Graphics/SVG/1.1/DTD/svg11.dtd">
<svg xmlns:xlink="http://www.w3.org/1999/xlink" width="320.440625pt" height="211.07625pt" viewBox="0 0 320.440625 211.07625" xmlns="http://www.w3.org/2000/svg" version="1.1">
 <metadata>
  <rdf:RDF xmlns:dc="http://purl.org/dc/elements/1.1/" xmlns:cc="http://creativecommons.org/ns#" xmlns:rdf="http://www.w3.org/1999/02/22-rdf-syntax-ns#">
   <cc:Work>
    <dc:type rdf:resource="http://purl.org/dc/dcmitype/StillImage"/>
    <dc:date>2025-11-25T03:06:04.216440</dc:date>
    <dc:format>image/svg+xml</dc:format>
    <dc:creator>
     <cc:Agent>
      <dc:title>Matplotlib v3.10.7, https://matplotlib.org/</dc:title>
     </cc:Agent>
    </dc:creator>
   </cc:Work>
  </rdf:RDF>
 </metadata>
 <defs>
  <style type="text/css">*{stroke-linejoin: round; stroke-linecap: butt}</style>
 </defs>
 <g id="figure_1">
  <g id="patch_1">
   <path d="M 0 211.07625 
L 320.440625 211.07625 
L 320.440625 0 
L 0 0 
z
" style="fill: #ffffff"/>
  </g>
  <g id="axes_1">
   <g id="patch_2">
    <path d="M 27.878125 173.52 
L 306.878125 173.52 
L 306.878125 7.2 
L 27.878125 7.2 
z
" style="fill: #ffffff"/>
   </g>
   <g id="FillBetweenPolyCollection_1">
    <defs>
     <path id="m0b9cc62eb3" d="M 27.878125 -53.35665 
L 27.878125 -40.05105 
L 28.157404 -40.05105 
L 28.436684 -40.05105 
L 28.715963 -40.05105 
L 28.995242 -40.05105 
L 29.274521 -40.05105 
L 29.553801 -40.05105 
L 29.83308 -40.05105 
L 30.112359 -40.05105 
L 30.391639 -40.05105 
L 30.670918 -40.05105 
L 30.950197 -40.05105 
L 31.229476 -40.05105 
L 31.508756 -40.05105 
L 31.788035 -40.05105 
L 32.067314 -40.05105 
L 32.346593 -40.05105 
L 32.625873 -40.05105 
L 32.905152 -40.05105 
L 33.184431 -40.05105 
L 33.463711 -40.05105 
L 33.74299 -40.05105 
L 34.022269 -40.05105 
L 34.301548 -40.05105 
L 34.580828 -40.05105 
L 34.860107 -40.05105 
L 35.139386 -40.05105 
L 35.418666 -40.05105 
L 35.697945 -40.05105 
L 35.977224 -40.05105 
L 36.256503 -40.05105 
L 36.535783 -40.05105 
L 36.815062 -40.05105 
L 37.094341 -40.05105 
L 37.37362 -40.05105 
L 37.6529 -40.05105 
L 37.932179 -40.05105 
L 38.211458 -40.05105 
L 38.490738 -40.05105 
L 38.770017 -40.05105 
L 39.049296 -40.05105 
L 39.328575 -40.05105 
L 39.607855 -40.05105 
L 39.887134 -40.05105 
L 40.166413 -40.05105 
L 40.445693 -40.05105 
L 40.724972 -40.05105 
L 41.004251 -40.05105 
L 41.28353 -40.05105 
L 41.56281 -40.05105 
L 41.842089 -45.87225 
L 42.121368 -45.87225 
L 42.400648 -45.87225 
L 42.679927 -45.87225 
L 42.959206 -45.87225 
L 43.238485 -45.87225 
L 43.517765 -45.87225 
L 43.797044 -45.87225 
L 44.076323 -45.87225 
L 44.355602 -45.87225 
L 44.634882 -45.87225 
L 44.914161 -45.87225 
L 45.19344 -45.87225 
L 45.47272 -45.87225 
L 45.751999 -45.87225 
L 46.031278 -45.87225 
L 46.310557 -45.87225 
L 46.589837 -45.87225 
L 46.869116 -45.87225 
L 47.148395 -45.87225 
L 47.427675 -45.87225 
L 47.706954 -45.87225 
L 47.986233 -45.87225 
L 48.265512 -45.87225 
L 48.544792 -45.87225 
L 48.824071 -45.87225 
L 49.10335 -45.87225 
L 49.38263 -45.87225 
L 49.661909 -45.87225 
L 49.941188 -45.87225 
L 50.220467 -45.87225 
L 50.499747 -45.87225 
L 50.779026 -45.87225 
L 51.058305 -45.87225 
L 51.337584 -45.87225 
L 51.616864 -45.87225 
L 51.896143 -45.87225 
L 52.175422 -45.87225 
L 52.454702 -45.87225 
L 52.733981 -45.87225 
L 53.01326 -45.87225 
L 53.292539 -45.87225 
L 53.571819 -45.87225 
L 53.851098 -45.87225 
L 54.130377 -45.87225 
L 54.409657 -45.87225 
L 54.688936 -45.87225 
L 54.968215 -45.87225 
L 55.247494 -45.87225 
L 55.526774 -45.87225 
L 55.806053 -52.52505 
L 56.085332 -52.52505 
L 56.364611 -52.52505 
L 56.643891 -52.52505 
L 56.92317 -52.52505 
L 57.202449 -52.52505 
L 57.481729 -52.52505 
L 57.761008 -52.52505 
L 58.040287 -52.52505 
L 58.319566 -52.52505 
L 58.598846 -52.52505 
L 58.878125 -52.52505 
L 59.157404 -52.52505 
L 59.436684 -52.52505 
L 59.715963 -52.52505 
L 59.995242 -52.52505 
L 60.274521 -52.52505 
L 60.553801 -52.52505 
L 60.83308 -52.52505 
L 61.112359 -52.52505 
L 61.391639 -52.52505 
L 61.670918 -52.52505 
L 61.950197 -52.52505 
L 62.229476 -52.52505 
L 62.508756 -52.52505 
L 62.788035 -52.52505 
L 63.067314 -52.52505 
L 63.346593 -52.52505 
L 63.625873 -52.52505 
L 63.905152 -52.52505 
L 64.184431 -52.52505 
L 64.463711 -52.52505 
L 64.74299 -52.52505 
L 65.022269 -52.52505 
L 65.301548 -52.52505 
L 65.580828 -52.52505 
L 65.860107 -52.52505 
L 66.139386 -52.52505 
L 66.418666 -52.52505 
L 66.697945 -52.52505 
L 66.977224 -52.52505 
L 67.256503 -52.52505 
L 67.535783 -52.52505 
L 67.815062 -52.52505 
L 68.094341 -52.52505 
L 68.37362 -52.52505 
L 68.6529 -52.52505 
L 68.932179 -52.52505 
L 69.211458 -52.52505 
L 69.490738 -52.52505 
L 69.770017 -59.17785 
L 70.049296 -59.17785 
L 70.328575 -59.17785 
L 70.607855 -59.17785 
L 70.887134 -59.17785 
L 71.166413 -59.17785 
L 71.445693 -59.17785 
L 71.724972 -59.17785 
L 72.004251 -59.17785 
L 72.28353 -59.17785 
L 72.56281 -59.17785 
L 72.842089 -59.17785 
L 73.121368 -59.17785 
L 73.400648 -59.17785 
L 73.679927 -59.17785 
L 73.959206 -59.17785 
L 74.238485 -59.17785 
L 74.517765 -59.17785 
L 74.797044 -59.17785 
L 75.076323 -59.17785 
L 75.355602 -59.17785 
L 75.634882 -59.17785 
L 75.914161 -59.17785 
L 76.19344 -59.17785 
L 76.47272 -59.17785 
L 76.751999 -59.17785 
L 77.031278 -59.17785 
L 77.310557 -59.17785 
L 77.589837 -59.17785 
L 77.869116 -59.17785 
L 78.148395 -59.17785 
L 78.427675 -59.17785 
L 78.706954 -59.17785 
L 78.986233 -59.17785 
L 79.265512 -59.17785 
L 79.544792 -59.17785 
L 79.824071 -59.17785 
L 80.10335 -59.17785 
L 80.38263 -59.17785 
L 80.661909 -59.17785 
L 80.941188 -59.17785 
L 81.220467 -59.17785 
L 81.499747 -59.17785 
L 81.779026 -59.17785 
L 82.058305 -59.17785 
L 82.337584 -59.17785 
L 82.616864 -59.17785 
L 82.896143 -59.17785 
L 83.175422 -59.17785 
L 83.454702 -59.17785 
L 83.733981 -66.66225 
L 84.01326 -66.66225 
L 84.292539 -66.66225 
L 84.571819 -66.66225 
L 84.851098 -66.66225 
L 85.130377 -66.66225 
L 85.409657 -66.66225 
L 85.688936 -66.66225 
L 85.968215 -66.66225 
L 86.247494 -66.66225 
L 86.526774 -66.66225 
L 86.806053 -66.66225 
L 87.085332 -66.66225 
L 87.364611 -66.66225 
L 87.643891 -66.66225 
L 87.92317 -66.66225 
L 88.202449 -66.66225 
L 88.481729 -66.66225 
L 88.761008 -66.66225 
L 89.040287 -66.66225 
L 89.319566 -66.66225 
L 89.598846 -66.66225 
L 89.878125 -66.66225 
L 90.157404 -66.66225 
L 90.436684 -66.66225 
L 90.715963 -66.66225 
L 90.995242 -66.66225 
L 91.274521 -66.66225 
L 91.553801 -66.66225 
L 91.83308 -66.66225 
L 92.112359 -66.66225 
L 92.391639 -66.66225 
L 92.670918 -66.66225 
L 92.950197 -66.66225 
L 93.229476 -66.66225 
L 93.508756 -66.66225 
L 93.788035 -66.66225 
L 94.067314 -66.66225 
L 94.346593 -66.66225 
L 94.625873 -66.66225 
L 94.905152 -66.66225 
L 95.184431 -66.66225 
L 95.463711 -66.66225 
L 95.74299 -66.66225 
L 96.022269 -66.66225 
L 96.301548 -66.66225 
L 96.580828 -66.66225 
L 96.860107 -66.66225 
L 97.139386 -66.66225 
L 97.418666 -66.66225 
L 97.697945 -74.14665 
L 97.977224 -74.14665 
L 98.256503 -74.14665 
L 98.535783 -74.14665 
L 98.815062 -74.14665 
L 99.094341 -74.14665 
L 99.37362 -74.14665 
L 99.6529 -74.14665 
L 99.932179 -74.14665 
L 100.211458 -74.14665 
L 100.490738 -74.14665 
L 100.770017 -74.14665 
L 101.049296 -74.14665 
L 101.328575 -74.14665 
L 101.607855 -74.14665 
L 101.887134 -74.14665 
L 102.166413 -74.14665 
L 102.445693 -74.14665 
L 102.724972 -74.14665 
L 103.004251 -74.14665 
L 103.28353 -74.14665 
L 103.56281 -74.14665 
L 103.842089 -74.14665 
L 104.121368 -74.14665 
L 104.400648 -74.14665 
L 104.679927 -74.14665 
L 104.959206 -74.14665 
L 105.238485 -74.14665 
L 105.517765 -74.14665 
L 105.797044 -74.14665 
L 106.076323 -74.14665 
L 106.355602 -74.14665 
L 106.634882 -74.14665 
L 106.914161 -74.14665 
L 107.19344 -74.14665 
L 107.47272 -74.14665 
L 107.751999 -74.14665 
L 108.031278 -74.14665 
L 108.310557 -74.14665 
L 108.589837 -74.14665 
L 108.869116 -74.14665 
L 109.148395 -74.14665 
L 109.427675 -74.14665 
L 109.706954 -74.14665 
L 109.986233 -74.14665 
L 110.265512 -74.14665 
L 110.544792 -74.14665 
L 110.824071 -74.14665 
L 111.10335 -74.14665 
L 111.38263 -74.14665 
L 111.661909 -81.63105 
L 111.941188 -81.63105 
L 112.220467 -81.63105 
L 112.499747 -81.63105 
L 112.779026 -81.63105 
L 113.058305 -81.63105 
L 113.337584 -81.63105 
L 113.616864 -81.63105 
L 113.896143 -81.63105 
L 114.175422 -81.63105 
L 114.454702 -81.63105 
L 114.733981 -81.63105 
L 115.01326 -81.63105 
L 115.292539 -81.63105 
L 115.571819 -81.63105 
L 115.851098 -81.63105 
L 116.130377 -81.63105 
L 116.409657 -81.63105 
L 116.688936 -81.63105 
L 116.968215 -81.63105 
L 117.247494 -81.63105 
L 117.526774 -81.63105 
L 117.806053 -81.63105 
L 118.085332 -81.63105 
L 118.364611 -81.63105 
L 118.643891 -81.63105 
L 118.92317 -81.63105 
L 119.202449 -81.63105 
L 119.481729 -81.63105 
L 119.761008 -81.63105 
L 120.040287 -81.63105 
L 120.319566 -81.63105 
L 120.598846 -81.63105 
L 120.878125 -81.63105 
L 121.157404 -81.63105 
L 121.436684 -81.63105 
L 121.715963 -81.63105 
L 121.995242 -81.63105 
L 122.274521 -81.63105 
L 122.553801 -81.63105 
L 122.83308 -81.63105 
L 123.112359 -81.63105 
L 123.391639 -81.63105 
L 123.670918 -81.63105 
L 123.950197 -81.63105 
L 124.229476 -81.63105 
L 124.508756 -81.63105 
L 124.788035 -81.63105 
L 125.067314 -81.63105 
L 125.346593 -81.63105 
L 125.625873 -89.11545 
L 125.905152 -89.11545 
L 126.184431 -89.11545 
L 126.463711 -89.11545 
L 126.74299 -89.11545 
L 127.022269 -89.11545 
L 127.301548 -89.11545 
L 127.580828 -89.11545 
L 127.860107 -89.11545 
L 128.139386 -89.11545 
L 128.418666 -89.11545 
L 128.697945 -89.11545 
L 128.977224 -89.11545 
L 129.256503 -89.11545 
L 129.535783 -89.11545 
L 129.815062 -89.11545 
L 130.094341 -89.11545 
L 130.37362 -89.11545 
L 130.6529 -89.11545 
L 130.932179 -89.11545 
L 131.211458 -89.11545 
L 131.490738 -89.11545 
L 131.770017 -89.11545 
L 132.049296 -89.11545 
L 132.328575 -89.11545 
L 132.607855 -89.11545 
L 132.887134 -89.11545 
L 133.166413 -89.11545 
L 133.445693 -89.11545 
L 133.724972 -89.11545 
L 134.004251 -89.11545 
L 134.28353 -89.11545 
L 134.56281 -89.11545 
L 134.842089 -89.11545 
L 135.121368 -89.11545 
L 135.400648 -89.11545 
L 135.679927 -89.11545 
L 135.959206 -89.11545 
L 136.238485 -89.11545 
L 136.517765 -89.11545 
L 136.797044 -89.11545 
L 137.076323 -89.11545 
L 137.355602 -89.11545 
L 137.634882 -89.11545 
L 137.914161 -89.11545 
L 138.19344 -89.11545 
L 138.47272 -89.11545 
L 138.751999 -89.11545 
L 139.031278 -89.11545 
L 139.310557 -89.11545 
L 139.589837 -97.43145 
L 139.869116 -97.43145 
L 140.148395 -97.43145 
L 140.427675 -97.43145 
L 140.706954 -97.43145 
L 140.986233 -97.43145 
L 141.265512 -97.43145 
L 141.544792 -97.43145 
L 141.824071 -97.43145 
L 142.10335 -97.43145 
L 142.38263 -97.43145 
L 142.661909 -97.43145 
L 142.941188 -97.43145 
L 143.220467 -97.43145 
L 143.499747 -97.43145 
L 143.779026 -97.43145 
L 144.058305 -97.43145 
L 144.337584 -97.43145 
L 144.616864 -97.43145 
L 144.896143 -97.43145 
L 145.175422 -97.43145 
L 145.454702 -97.43145 
L 145.733981 -97.43145 
L 146.01326 -97.43145 
L 146.292539 -97.43145 
L 146.571819 -97.43145 
L 146.851098 -97.43145 
L 147.130377 -97.43145 
L 147.409657 -97.43145 
L 147.688936 -97.43145 
L 147.968215 -97.43145 
L 148.247494 -97.43145 
L 148.526774 -97.43145 
L 148.806053 -97.43145 
L 149.085332 -97.43145 
L 149.364611 -97.43145 
L 149.643891 -97.43145 
L 149.92317 -97.43145 
L 150.202449 -97.43145 
L 150.481729 -97.43145 
L 150.761008 -97.43145 
L 151.040287 -97.43145 
L 151.319566 -97.43145 
L 151.598846 -97.43145 
L 151.878125 -97.43145 
L 152.157404 -97.43145 
L 152.436684 -97.43145 
L 152.715963 -97.43145 
L 152.995242 -97.43145 
L 153.274521 -97.43145 
L 153.553801 -105.74745 
L 153.83308 -105.74745 
L 154.112359 -105.74745 
L 154.391639 -105.74745 
L 154.670918 -105.74745 
L 154.950197 -105.74745 
L 155.229476 -105.74745 
L 155.508756 -105.74745 
L 155.788035 -105.74745 
L 156.067314 -105.74745 
L 156.346593 -105.74745 
L 156.625873 -105.74745 
L 156.905152 -105.74745 
L 157.184431 -105.74745 
L 157.463711 -105.74745 
L 157.74299 -105.74745 
L 158.022269 -105.74745 
L 158.301548 -105.74745 
L 158.580828 -105.74745 
L 158.860107 -105.74745 
L 159.139386 -105.74745 
L 159.418666 -105.74745 
L 159.697945 -105.74745 
L 159.977224 -105.74745 
L 160.256503 -105.74745 
L 160.535783 -105.74745 
L 160.815062 -105.74745 
L 161.094341 -105.74745 
L 161.37362 -105.74745 
L 161.6529 -105.74745 
L 161.932179 -105.74745 
L 162.211458 -105.74745 
L 162.490738 -105.74745 
L 162.770017 -105.74745 
L 163.049296 -105.74745 
L 163.328575 -105.74745 
L 163.607855 -105.74745 
L 163.887134 -105.74745 
L 164.166413 -105.74745 
L 164.445693 -105.74745 
L 164.724972 -105.74745 
L 165.004251 -105.74745 
L 165.28353 -105.74745 
L 165.56281 -105.74745 
L 165.842089 -105.74745 
L 166.121368 -105.74745 
L 166.400648 -105.74745 
L 166.679927 -105.74745 
L 166.959206 -105.74745 
L 167.238485 -105.74745 
L 167.517765 -114.06345 
L 167.797044 -114.06345 
L 168.076323 -114.06345 
L 168.355602 -114.06345 
L 168.634882 -114.06345 
L 168.914161 -114.06345 
L 169.19344 -114.06345 
L 169.47272 -114.06345 
L 169.751999 -114.06345 
L 170.031278 -114.06345 
L 170.310557 -114.06345 
L 170.589837 -114.06345 
L 170.869116 -114.06345 
L 171.148395 -114.06345 
L 171.427675 -114.06345 
L 171.706954 -114.06345 
L 171.986233 -114.06345 
L 172.265512 -114.06345 
L 172.544792 -114.06345 
L 172.824071 -114.06345 
L 173.10335 -114.06345 
L 173.38263 -114.06345 
L 173.661909 -114.06345 
L 173.941188 -114.06345 
L 174.220467 -114.06345 
L 174.499747 -114.06345 
L 174.779026 -114.06345 
L 175.058305 -114.06345 
L 175.337584 -114.06345 
L 175.616864 -114.06345 
L 175.896143 -114.06345 
L 176.175422 -114.06345 
L 176.454702 -114.06345 
L 176.733981 -114.06345 
L 177.01326 -114.06345 
L 177.292539 -114.06345 
L 177.571819 -114.06345 
L 177.851098 -114.06345 
L 178.130377 -114.06345 
L 178.409657 -114.06345 
L 178.688936 -114.06345 
L 178.968215 -114.06345 
L 179.247494 -114.06345 
L 179.526774 -114.06345 
L 179.806053 -114.06345 
L 180.085332 -114.06345 
L 180.364611 -114.06345 
L 180.643891 -114.06345 
L 180.92317 -114.06345 
L 181.202449 -114.06345 
L 181.481729 -122.37945 
L 181.761008 -122.37945 
L 182.040287 -122.37945 
L 182.319566 -122.37945 
L 182.598846 -122.37945 
L 182.878125 -122.37945 
L 183.157404 -122.37945 
L 183.436684 -122.37945 
L 183.715963 -122.37945 
L 183.995242 -122.37945 
L 184.274521 -122.37945 
L 184.553801 -122.37945 
L 184.83308 -122.37945 
L 185.112359 -122.37945 
L 185.391639 -122.37945 
L 185.670918 -122.37945 
L 185.950197 -122.37945 
L 186.229476 -122.37945 
L 186.508756 -122.37945 
L 186.788035 -122.37945 
L 187.067314 -122.37945 
L 187.346593 -122.37945 
L 187.625873 -122.37945 
L 187.905152 -122.37945 
L 188.184431 -122.37945 
L 188.463711 -122.37945 
L 188.74299 -122.37945 
L 189.022269 -122.37945 
L 189.301548 -122.37945 
L 189.580828 -122.37945 
L 189.860107 -122.37945 
L 190.139386 -122.37945 
L 190.418666 -122.37945 
L 190.697945 -122.37945 
L 190.977224 -122.37945 
L 191.256503 -122.37945 
L 191.535783 -122.37945 
L 191.815062 -122.37945 
L 192.094341 -122.37945 
L 192.37362 -122.37945 
L 192.6529 -122.37945 
L 192.932179 -122.37945 
L 193.211458 -122.37945 
L 193.490738 -122.37945 
L 193.770017 -122.37945 
L 194.049296 -122.37945 
L 194.328575 -122.37945 
L 194.607855 -122.37945 
L 194.887134 -122.37945 
L 195.166413 -122.37945 
L 195.445693 -130.69545 
L 195.724972 -130.69545 
L 196.004251 -130.69545 
L 196.28353 -130.69545 
L 196.56281 -130.69545 
L 196.842089 -130.69545 
L 197.121368 -130.69545 
L 197.400648 -130.69545 
L 197.679927 -130.69545 
L 197.959206 -130.69545 
L 198.238485 -130.69545 
L 198.517765 -130.69545 
L 198.797044 -130.69545 
L 199.076323 -130.69545 
L 199.355602 -130.69545 
L 199.634882 -130.69545 
L 199.914161 -130.69545 
L 200.19344 -130.69545 
L 200.47272 -130.69545 
L 200.751999 -130.69545 
L 201.031278 -130.69545 
L 201.310557 -130.69545 
L 201.589837 -130.69545 
L 201.869116 -130.69545 
L 202.148395 -130.69545 
L 202.427675 -130.69545 
L 202.706954 -130.69545 
L 202.986233 -130.69545 
L 203.265512 -130.69545 
L 203.544792 -130.69545 
L 203.824071 -130.69545 
L 204.10335 -130.69545 
L 204.38263 -130.69545 
L 204.661909 -130.69545 
L 204.941188 -130.69545 
L 205.220467 -130.69545 
L 205.499747 -130.69545 
L 205.779026 -130.69545 
L 206.058305 -130.69545 
L 206.337584 -130.69545 
L 206.616864 -130.69545 
L 206.896143 -130.69545 
L 207.175422 -130.69545 
L 207.454702 -130.69545 
L 207.733981 -130.69545 
L 208.01326 -130.69545 
L 208.292539 -130.69545 
L 208.571819 -130.69545 
L 208.851098 -130.69545 
L 209.130377 -130.69545 
L 209.409657 -139.84305 
L 209.688936 -139.84305 
L 209.968215 -139.84305 
L 210.247494 -139.84305 
L 210.526774 -139.84305 
L 210.806053 -139.84305 
L 211.085332 -139.84305 
L 211.364611 -139.84305 
L 211.643891 -139.84305 
L 211.92317 -139.84305 
L 212.202449 -139.84305 
L 212.481729 -139.84305 
L 212.761008 -139.84305 
L 213.040287 -139.84305 
L 213.319566 -139.84305 
L 213.598846 -139.84305 
L 213.878125 -139.84305 
L 214.157404 -139.84305 
L 214.436684 -139.84305 
L 214.715963 -139.84305 
L 214.995242 -139.84305 
L 215.274521 -139.84305 
L 215.553801 -139.84305 
L 215.83308 -139.84305 
L 216.112359 -139.84305 
L 216.391639 -139.84305 
L 216.670918 -139.84305 
L 216.950197 -139.84305 
L 217.229476 -139.84305 
L 217.508756 -139.84305 
L 217.788035 -139.84305 
L 218.067314 -139.84305 
L 218.346593 -139.84305 
L 218.625873 -139.84305 
L 218.905152 -139.84305 
L 219.184431 -139.84305 
L 219.463711 -139.84305 
L 219.74299 -139.84305 
L 220.022269 -139.84305 
L 220.301548 -139.84305 
L 220.580828 -139.84305 
L 220.860107 -139.84305 
L 221.139386 -139.84305 
L 221.418666 -139.84305 
L 221.697945 -139.84305 
L 221.977224 -139.84305 
L 222.256503 -139.84305 
L 222.535783 -139.84305 
L 222.815062 -139.84305 
L 223.094341 -139.84305 
L 223.37362 -148.99065 
L 223.6529 -148.99065 
L 223.932179 -148.99065 
L 224.211458 -148.99065 
L 224.490738 -148.99065 
L 224.770017 -148.99065 
L 225.049296 -148.99065 
L 225.328575 -148.99065 
L 225.607855 -148.99065 
L 225.887134 -148.99065 
L 226.166413 -148.99065 
L 226.445693 -148.99065 
L 226.724972 -148.99065 
L 227.004251 -148.99065 
L 227.28353 -148.99065 
L 227.56281 -148.99065 
L 227.842089 -148.99065 
L 228.121368 -148.99065 
L 228.400648 -148.99065 
L 228.679927 -148.99065 
L 228.959206 -148.99065 
L 229.238485 -148.99065 
L 229.517765 -148.99065 
L 229.797044 -148.99065 
L 230.076323 -148.99065 
L 230.355602 -148.99065 
L 230.634882 -148.99065 
L 230.914161 -148.99065 
L 231.19344 -148.99065 
L 231.47272 -148.99065 
L 231.751999 -148.99065 
L 232.031278 -148.99065 
L 232.310557 -148.99065 
L 232.589837 -148.99065 
L 232.869116 -148.99065 
L 233.148395 -148.99065 
L 233.427675 -148.99065 
L 233.706954 -148.99065 
L 233.986233 -148.99065 
L 234.265512 -148.99065 
L 234.544792 -148.99065 
L 234.824071 -148.99065 
L 235.10335 -148.99065 
L 235.38263 -148.99065 
L 235.661909 -148.99065 
L 235.941188 -148.99065 
L 236.220467 -148.99065 
L 236.499747 -148.99065 
L 236.779026 -148.99065 
L 237.058305 -148.99065 
L 237.337584 -158.13825 
L 237.616864 -158.13825 
L 237.896143 -158.13825 
L 238.175422 -158.13825 
L 238.454702 -158.13825 
L 238.733981 -158.13825 
L 239.01326 -158.13825 
L 239.292539 -158.13825 
L 239.571819 -158.13825 
L 239.851098 -158.13825 
L 240.130377 -158.13825 
L 240.409657 -158.13825 
L 240.688936 -158.13825 
L 240.968215 -158.13825 
L 241.247494 -158.13825 
L 241.526774 -158.13825 
L 241.806053 -158.13825 
L 242.085332 -158.13825 
L 242.364611 -158.13825 
L 242.643891 -158.13825 
L 242.92317 -158.13825 
L 243.202449 -158.13825 
L 243.481729 -158.13825 
L 243.761008 -158.13825 
L 244.040287 -158.13825 
L 244.319566 -158.13825 
L 244.598846 -158.13825 
L 244.878125 -158.13825 
L 245.157404 -158.13825 
L 245.436684 -158.13825 
L 245.715963 -158.13825 
L 245.995242 -158.13825 
L 246.274521 -158.13825 
L 246.553801 -158.13825 
L 246.83308 -158.13825 
L 247.112359 -158.13825 
L 247.391639 -158.13825 
L 247.670918 -158.13825 
L 247.950197 -158.13825 
L 248.229476 -158.13825 
L 248.508756 -158.13825 
L 248.788035 -158.13825 
L 249.067314 -158.13825 
L 249.346593 -158.13825 
L 249.625873 -158.13825 
L 249.905152 -158.13825 
L 250.184431 -158.13825 
L 250.463711 -158.13825 
L 250.74299 -158.13825 
L 251.022269 -158.13825 
L 251.301548 -167.28585 
L 251.580828 -167.28585 
L 251.860107 -167.28585 
L 252.139386 -167.28585 
L 252.418666 -167.28585 
L 252.697945 -167.28585 
L 252.977224 -167.28585 
L 253.256503 -167.28585 
L 253.535783 -167.28585 
L 253.815062 -167.28585 
L 254.094341 -167.28585 
L 254.37362 -167.28585 
L 254.6529 -167.28585 
L 254.932179 -167.28585 
L 255.211458 -167.28585 
L 255.490738 -167.28585 
L 255.770017 -167.28585 
L 256.049296 -167.28585 
L 256.328575 -167.28585 
L 256.607855 -167.28585 
L 256.887134 -167.28585 
L 257.166413 -167.28585 
L 257.445693 -167.28585 
L 257.724972 -167.28585 
L 258.004251 -167.28585 
L 258.28353 -167.28585 
L 258.56281 -167.28585 
L 258.842089 -167.28585 
L 259.121368 -167.28585 
L 259.400648 -167.28585 
L 259.679927 -167.28585 
L 259.959206 -167.28585 
L 260.238485 -167.28585 
L 260.517765 -167.28585 
L 260.797044 -167.28585 
L 261.076323 -167.28585 
L 261.355602 -167.28585 
L 261.634882 -167.28585 
L 261.914161 -167.28585 
L 262.19344 -167.28585 
L 262.47272 -167.28585 
L 262.751999 -167.28585 
L 263.031278 -167.28585 
L 263.310557 -167.28585 
L 263.589837 -167.28585 
L 263.869116 -167.28585 
L 264.148395 -167.28585 
L 264.427675 -167.28585 
L 264.706954 -167.28585 
L 264.986233 -167.28585 
L 265.265512 -177.26505 
L 265.544792 -177.26505 
L 265.824071 -177.26505 
L 266.10335 -177.26505 
L 266.38263 -177.26505 
L 266.661909 -177.26505 
L 266.941188 -177.26505 
L 267.220467 -177.26505 
L 267.499747 -177.26505 
L 267.779026 -177.26505 
L 268.058305 -177.26505 
L 268.337584 -177.26505 
L 268.616864 -177.26505 
L 268.896143 -177.26505 
L 269.175422 -177.26505 
L 269.454702 -177.26505 
L 269.733981 -177.26505 
L 270.01326 -177.26505 
L 270.292539 -177.26505 
L 270.571819 -177.26505 
L 270.851098 -177.26505 
L 271.130377 -177.26505 
L 271.409657 -177.26505 
L 271.688936 -177.26505 
L 271.968215 -177.26505 
L 272.247494 -177.26505 
L 272.526774 -177.26505 
L 272.806053 -177.26505 
L 273.085332 -177.26505 
L 273.364611 -177.26505 
L 273.643891 -177.26505 
L 273.92317 -177.26505 
L 274.202449 -177.26505 
L 274.481729 -177.26505 
L 274.761008 -177.26505 
L 275.040287 -177.26505 
L 275.319566 -177.26505 
L 275.598846 -177.26505 
L 275.878125 -177.26505 
L 276.157404 -177.26505 
L 276.436684 -177.26505 
L 276.715963 -177.26505 
L 276.995242 -177.26505 
L 277.274521 -177.26505 
L 277.553801 -177.26505 
L 277.83308 -177.26505 
L 278.112359 -177.26505 
L 278.391639 -177.26505 
L 278.670918 -177.26505 
L 278.950197 -177.26505 
L 279.229476 -188.07585 
L 279.508756 -188.07585 
L 279.788035 -188.07585 
L 280.067314 -188.07585 
L 280.346593 -188.07585 
L 280.625873 -188.07585 
L 280.905152 -188.07585 
L 281.184431 -188.07585 
L 281.463711 -188.07585 
L 281.74299 -188.07585 
L 282.022269 -188.07585 
L 282.301548 -188.07585 
L 282.580828 -188.07585 
L 282.860107 -188.07585 
L 283.139386 -188.07585 
L 283.418666 -188.07585 
L 283.697945 -188.07585 
L 283.977224 -188.07585 
L 284.256503 -188.07585 
L 284.535783 -188.07585 
L 284.815062 -188.07585 
L 285.094341 -188.07585 
L 285.37362 -188.07585 
L 285.6529 -188.07585 
L 285.932179 -188.07585 
L 286.211458 -188.07585 
L 286.490738 -188.07585 
L 286.770017 -188.07585 
L 287.049296 -188.07585 
L 287.328575 -188.07585 
L 287.607855 -188.07585 
L 287.887134 -188.07585 
L 288.166413 -188.07585 
L 288.445693 -188.07585 
L 288.724972 -188.07585 
L 289.004251 -188.07585 
L 289.28353 -188.07585 
L 289.56281 -188.07585 
L 289.842089 -188.07585 
L 290.121368 -188.07585 
L 290.400648 -188.07585 
L 290.679927 -188.07585 
L 290.959206 -188.07585 
L 291.238485 -188.07585 
L 291.517765 -188.07585 
L 291.797044 -188.07585 
L 292.076323 -188.07585 
L 292.355602 -188.07585 
L 292.634882 -188.07585 
L 292.914161 -188.07585 
L 293.19344 -203.87625 
L 293.47272 -203.87625 
L 293.751999 -203.87625 
L 294.031278 -203.87625 
L 294.310557 -203.87625 
L 294.589837 -203.87625 
L 294.869116 -203.87625 
L 295.148395 -203.87625 
L 295.427675 -203.87625 
L 295.706954 -203.87625 
L 295.986233 -203.87625 
L 296.265512 -203.87625 
L 296.544792 -203.87625 
L 296.824071 -203.87625 
L 297.10335 -203.87625 
L 297.38263 -203.87625 
L 297.661909 -203.87625 
L 297.941188 -203.87625 
L 298.220467 -203.87625 
L 298.499747 -203.87625 
L 298.779026 -203.87625 
L 299.058305 -203.87625 
L 299.337584 -203.87625 
L 299.616864 -203.87625 
L 299.896143 -203.87625 
L 300.175422 -203.87625 
L 300.454702 -203.87625 
L 300.733981 -203.87625 
L 301.01326 -203.87625 
L 301.292539 -203.87625 
L 301.571819 -203.87625 
L 301.851098 -203.87625 
L 302.130377 -203.87625 
L 302.409657 -203.87625 
L 302.688936 -203.87625 
L 302.968215 -203.87625 
L 303.247494 -203.87625 
L 303.526774 -203.87625 
L 303.806053 -203.87625 
L 304.085332 -203.87625 
L 304.364611 -203.87625 
L 304.643891 -203.87625 
L 304.92317 -203.87625 
L 305.202449 -203.87625 
L 305.481729 -203.87625 
L 305.761008 -203.87625 
L 306.040287 -203.87625 
L 306.319566 -203.87625 
L 306.598846 -203.87625 
L 306.878125 -203.87625 
L 306.878125 -203.87625 
L 306.878125 -203.87625 
L 306.598846 -203.87625 
L 306.319566 -203.87625 
L 306.040287 -203.87625 
L 305.761008 -203.87625 
L 305.481729 -203.87625 
L 305.202449 -203.87625 
L 304.92317 -203.87625 
L 304.643891 -203.87625 
L 304.364611 -203.87625 
L 304.085332 -203.87625 
L 303.806053 -203.87625 
L 303.526774 -203.87625 
L 303.247494 -203.87625 
L 302.968215 -203.87625 
L 302.688936 -203.87625 
L 302.409657 -203.87625 
L 302.130377 -203.87625 
L 301.851098 -203.87625 
L 301.571819 -203.87625 
L 301.292539 -203.87625 
L 301.01326 -203.87625 
L 300.733981 -203.87625 
L 300.454702 -203.87625 
L 300.175422 -203.87625 
L 299.896143 -203.87625 
L 299.616864 -203.87625 
L 299.337584 -203.87625 
L 299.058305 -203.87625 
L 298.779026 -203.87625 
L 298.499747 -203.87625 
L 298.220467 -203.87625 
L 297.941188 -203.87625 
L 297.661909 -203.87625 
L 297.38263 -203.87625 
L 297.10335 -203.87625 
L 296.824071 -203.87625 
L 296.544792 -203.87625 
L 296.265512 -203.87625 
L 295.986233 -203.87625 
L 295.706954 -203.87625 
L 295.427675 -203.87625 
L 295.148395 -203.87625 
L 294.869116 -203.87625 
L 294.589837 -203.87625 
L 294.310557 -203.87625 
L 294.031278 -203.87625 
L 293.751999 -203.87625 
L 293.47272 -203.87625 
L 293.19344 -203.87625 
L 292.914161 -201.38145 
L 292.634882 -201.38145 
L 292.355602 -201.38145 
L 292.076323 -201.38145 
L 291.797044 -201.38145 
L 291.517765 -201.38145 
L 291.238485 -201.38145 
L 290.959206 -201.38145 
L 290.679927 -201.38145 
L 290.400648 -201.38145 
L 290.121368 -201.38145 
L 289.842089 -201.38145 
L 289.56281 -201.38145 
L 289.28353 -201.38145 
L 289.004251 -201.38145 
L 288.724972 -201.38145 
L 288.445693 -201.38145 
L 288.166413 -201.38145 
L 287.887134 -201.38145 
L 287.607855 -201.38145 
L 287.328575 -201.38145 
L 287.049296 -201.38145 
L 286.770017 -201.38145 
L 286.490738 -201.38145 
L 286.211458 -201.38145 
L 285.932179 -201.38145 
L 285.6529 -201.38145 
L 285.37362 -201.38145 
L 285.094341 -201.38145 
L 284.815062 -201.38145 
L 284.535783 -201.38145 
L 284.256503 -201.38145 
L 283.977224 -201.38145 
L 283.697945 -201.38145 
L 283.418666 -201.38145 
L 283.139386 -201.38145 
L 282.860107 -201.38145 
L 282.580828 -201.38145 
L 282.301548 -201.38145 
L 282.022269 -201.38145 
L 281.74299 -201.38145 
L 281.463711 -201.38145 
L 281.184431 -201.38145 
L 280.905152 -201.38145 
L 280.625873 -201.38145 
L 280.346593 -201.38145 
L 280.067314 -201.38145 
L 279.788035 -201.38145 
L 279.508756 -201.38145 
L 279.229476 -201.38145 
L 278.950197 -195.56025 
L 278.670918 -195.56025 
L 278.391639 -195.56025 
L 278.112359 -195.56025 
L 277.83308 -195.56025 
L 277.553801 -195.56025 
L 277.274521 -195.56025 
L 276.995242 -195.56025 
L 276.715963 -195.56025 
L 276.436684 -195.56025 
L 276.157404 -195.56025 
L 275.878125 -195.56025 
L 275.598846 -195.56025 
L 275.319566 -195.56025 
L 275.040287 -195.56025 
L 274.761008 -195.56025 
L 274.481729 -195.56025 
L 274.202449 -195.56025 
L 273.92317 -195.56025 
L 273.643891 -195.56025 
L 273.364611 -195.56025 
L 273.085332 -195.56025 
L 272.806053 -195.56025 
L 272.526774 -195.56025 
L 272.247494 -195.56025 
L 271.968215 -195.56025 
L 271.688936 -195.56025 
L 271.409657 -195.56025 
L 271.130377 -195.56025 
L 270.851098 -195.56025 
L 270.571819 -195.56025 
L 270.292539 -195.56025 
L 270.01326 -195.56025 
L 269.733981 -195.56025 
L 269.454702 -195.56025 
L 269.175422 -195.56025 
L 268.896143 -195.56025 
L 268.616864 -195.56025 
L 268.337584 -195.56025 
L 268.058305 -195.56025 
L 267.779026 -195.56025 
L 267.499747 -195.56025 
L 267.220467 -195.56025 
L 266.941188 -195.56025 
L 266.661909 -195.56025 
L 266.38263 -195.56025 
L 266.10335 -195.56025 
L 265.824071 -195.56025 
L 265.544792 -195.56025 
L 265.265512 -195.56025 
L 264.986233 -188.90745 
L 264.706954 -188.90745 
L 264.427675 -188.90745 
L 264.148395 -188.90745 
L 263.869116 -188.90745 
L 263.589837 -188.90745 
L 263.310557 -188.90745 
L 263.031278 -188.90745 
L 262.751999 -188.90745 
L 262.47272 -188.90745 
L 262.19344 -188.90745 
L 261.914161 -188.90745 
L 261.634882 -188.90745 
L 261.355602 -188.90745 
L 261.076323 -188.90745 
L 260.797044 -188.90745 
L 260.517765 -188.90745 
L 260.238485 -188.90745 
L 259.959206 -188.90745 
L 259.679927 -188.90745 
L 259.400648 -188.90745 
L 259.121368 -188.90745 
L 258.842089 -188.90745 
L 258.56281 -188.90745 
L 258.28353 -188.90745 
L 258.004251 -188.90745 
L 257.724972 -188.90745 
L 257.445693 -188.90745 
L 257.166413 -188.90745 
L 256.887134 -188.90745 
L 256.607855 -188.90745 
L 256.328575 -188.90745 
L 256.049296 -188.90745 
L 255.770017 -188.90745 
L 255.490738 -188.90745 
L 255.211458 -188.90745 
L 254.932179 -188.90745 
L 254.6529 -188.90745 
L 254.37362 -188.90745 
L 254.094341 -188.90745 
L 253.815062 -188.90745 
L 253.535783 -188.90745 
L 253.256503 -188.90745 
L 252.977224 -188.90745 
L 252.697945 -188.90745 
L 252.418666 -188.90745 
L 252.139386 -188.90745 
L 251.860107 -188.90745 
L 251.580828 -188.90745 
L 251.301548 -188.90745 
L 251.022269 -182.25465 
L 250.74299 -182.25465 
L 250.463711 -182.25465 
L 250.184431 -182.25465 
L 249.905152 -182.25465 
L 249.625873 -182.25465 
L 249.346593 -182.25465 
L 249.067314 -182.25465 
L 248.788035 -182.25465 
L 248.508756 -182.25465 
L 248.229476 -182.25465 
L 247.950197 -182.25465 
L 247.670918 -182.25465 
L 247.391639 -182.25465 
L 247.112359 -182.25465 
L 246.83308 -182.25465 
L 246.553801 -182.25465 
L 246.274521 -182.25465 
L 245.995242 -182.25465 
L 245.715963 -182.25465 
L 245.436684 -182.25465 
L 245.157404 -182.25465 
L 244.878125 -182.25465 
L 244.598846 -182.25465 
L 244.319566 -182.25465 
L 244.040287 -182.25465 
L 243.761008 -182.25465 
L 243.481729 -182.25465 
L 243.202449 -182.25465 
L 242.92317 -182.25465 
L 242.643891 -182.25465 
L 242.364611 -182.25465 
L 242.085332 -182.25465 
L 241.806053 -182.25465 
L 241.526774 -182.25465 
L 241.247494 -182.25465 
L 240.968215 -182.25465 
L 240.688936 -182.25465 
L 240.409657 -182.25465 
L 240.130377 -182.25465 
L 239.851098 -182.25465 
L 239.571819 -182.25465 
L 239.292539 -182.25465 
L 239.01326 -182.25465 
L 238.733981 -182.25465 
L 238.454702 -182.25465 
L 238.175422 -182.25465 
L 237.896143 -182.25465 
L 237.616864 -182.25465 
L 237.337584 -182.25465 
L 237.058305 -174.77025 
L 236.779026 -174.77025 
L 236.499747 -174.77025 
L 236.220467 -174.77025 
L 235.941188 -174.77025 
L 235.661909 -174.77025 
L 235.38263 -174.77025 
L 235.10335 -174.77025 
L 234.824071 -174.77025 
L 234.544792 -174.77025 
L 234.265512 -174.77025 
L 233.986233 -174.77025 
L 233.706954 -174.77025 
L 233.427675 -174.77025 
L 233.148395 -174.77025 
L 232.869116 -174.77025 
L 232.589837 -174.77025 
L 232.310557 -174.77025 
L 232.031278 -174.77025 
L 231.751999 -174.77025 
L 231.47272 -174.77025 
L 231.19344 -174.77025 
L 230.914161 -174.77025 
L 230.634882 -174.77025 
L 230.355602 -174.77025 
L 230.076323 -174.77025 
L 229.797044 -174.77025 
L 229.517765 -174.77025 
L 229.238485 -174.77025 
L 228.959206 -174.77025 
L 228.679927 -174.77025 
L 228.400648 -174.77025 
L 228.121368 -174.77025 
L 227.842089 -174.77025 
L 227.56281 -174.77025 
L 227.28353 -174.77025 
L 227.004251 -174.77025 
L 226.724972 -174.77025 
L 226.445693 -174.77025 
L 226.166413 -174.77025 
L 225.887134 -174.77025 
L 225.607855 -174.77025 
L 225.328575 -174.77025 
L 225.049296 -174.77025 
L 224.770017 -174.77025 
L 224.490738 -174.77025 
L 224.211458 -174.77025 
L 223.932179 -174.77025 
L 223.6529 -174.77025 
L 223.37362 -174.77025 
L 223.094341 -167.28585 
L 222.815062 -167.28585 
L 222.535783 -167.28585 
L 222.256503 -167.28585 
L 221.977224 -167.28585 
L 221.697945 -167.28585 
L 221.418666 -167.28585 
L 221.139386 -167.28585 
L 220.860107 -167.28585 
L 220.580828 -167.28585 
L 220.301548 -167.28585 
L 220.022269 -167.28585 
L 219.74299 -167.28585 
L 219.463711 -167.28585 
L 219.184431 -167.28585 
L 218.905152 -167.28585 
L 218.625873 -167.28585 
L 218.346593 -167.28585 
L 218.067314 -167.28585 
L 217.788035 -167.28585 
L 217.508756 -167.28585 
L 217.229476 -167.28585 
L 216.950197 -167.28585 
L 216.670918 -167.28585 
L 216.391639 -167.28585 
L 216.112359 -167.28585 
L 215.83308 -167.28585 
L 215.553801 -167.28585 
L 215.274521 -167.28585 
L 214.995242 -167.28585 
L 214.715963 -167.28585 
L 214.436684 -167.28585 
L 214.157404 -167.28585 
L 213.878125 -167.28585 
L 213.598846 -167.28585 
L 213.319566 -167.28585 
L 213.040287 -167.28585 
L 212.761008 -167.28585 
L 212.481729 -167.28585 
L 212.202449 -167.28585 
L 211.92317 -167.28585 
L 211.643891 -167.28585 
L 211.364611 -167.28585 
L 211.085332 -167.28585 
L 210.806053 -167.28585 
L 210.526774 -167.28585 
L 210.247494 -167.28585 
L 209.968215 -167.28585 
L 209.688936 -167.28585 
L 209.409657 -167.28585 
L 209.130377 -159.80145 
L 208.851098 -159.80145 
L 208.571819 -159.80145 
L 208.292539 -159.80145 
L 208.01326 -159.80145 
L 207.733981 -159.80145 
L 207.454702 -159.80145 
L 207.175422 -159.80145 
L 206.896143 -159.80145 
L 206.616864 -159.80145 
L 206.337584 -159.80145 
L 206.058305 -159.80145 
L 205.779026 -159.80145 
L 205.499747 -159.80145 
L 205.220467 -159.80145 
L 204.941188 -159.80145 
L 204.661909 -159.80145 
L 204.38263 -159.80145 
L 204.10335 -159.80145 
L 203.824071 -159.80145 
L 203.544792 -159.80145 
L 203.265512 -159.80145 
L 202.986233 -159.80145 
L 202.706954 -159.80145 
L 202.427675 -159.80145 
L 202.148395 -159.80145 
L 201.869116 -159.80145 
L 201.589837 -159.80145 
L 201.310557 -159.80145 
L 201.031278 -159.80145 
L 200.751999 -159.80145 
L 200.47272 -159.80145 
L 200.19344 -159.80145 
L 199.914161 -159.80145 
L 199.634882 -159.80145 
L 199.355602 -159.80145 
L 199.076323 -159.80145 
L 198.797044 -159.80145 
L 198.517765 -159.80145 
L 198.238485 -159.80145 
L 197.959206 -159.80145 
L 197.679927 -159.80145 
L 197.400648 -159.80145 
L 197.121368 -159.80145 
L 196.842089 -159.80145 
L 196.56281 -159.80145 
L 196.28353 -159.80145 
L 196.004251 -159.80145 
L 195.724972 -159.80145 
L 195.445693 -159.80145 
L 195.166413 -152.31705 
L 194.887134 -152.31705 
L 194.607855 -152.31705 
L 194.328575 -152.31705 
L 194.049296 -152.31705 
L 193.770017 -152.31705 
L 193.490738 -152.31705 
L 193.211458 -152.31705 
L 192.932179 -152.31705 
L 192.6529 -152.31705 
L 192.37362 -152.31705 
L 192.094341 -152.31705 
L 191.815062 -152.31705 
L 191.535783 -152.31705 
L 191.256503 -152.31705 
L 190.977224 -152.31705 
L 190.697945 -152.31705 
L 190.418666 -152.31705 
L 190.139386 -152.31705 
L 189.860107 -152.31705 
L 189.580828 -152.31705 
L 189.301548 -152.31705 
L 189.022269 -152.31705 
L 188.74299 -152.31705 
L 188.463711 -152.31705 
L 188.184431 -152.31705 
L 187.905152 -152.31705 
L 187.625873 -152.31705 
L 187.346593 -152.31705 
L 187.067314 -152.31705 
L 186.788035 -152.31705 
L 186.508756 -152.31705 
L 186.229476 -152.31705 
L 185.950197 -152.31705 
L 185.670918 -152.31705 
L 185.391639 -152.31705 
L 185.112359 -152.31705 
L 184.83308 -152.31705 
L 184.553801 -152.31705 
L 184.274521 -152.31705 
L 183.995242 -152.31705 
L 183.715963 -152.31705 
L 183.436684 -152.31705 
L 183.157404 -152.31705 
L 182.878125 -152.31705 
L 182.598846 -152.31705 
L 182.319566 -152.31705 
L 182.040287 -152.31705 
L 181.761008 -152.31705 
L 181.481729 -152.31705 
L 181.202449 -144.00105 
L 180.92317 -144.00105 
L 180.643891 -144.00105 
L 180.364611 -144.00105 
L 180.085332 -144.00105 
L 179.806053 -144.00105 
L 179.526774 -144.00105 
L 179.247494 -144.00105 
L 178.968215 -144.00105 
L 178.688936 -144.00105 
L 178.409657 -144.00105 
L 178.130377 -144.00105 
L 177.851098 -144.00105 
L 177.571819 -144.00105 
L 177.292539 -144.00105 
L 177.01326 -144.00105 
L 176.733981 -144.00105 
L 176.454702 -144.00105 
L 176.175422 -144.00105 
L 175.896143 -144.00105 
L 175.616864 -144.00105 
L 175.337584 -144.00105 
L 175.058305 -144.00105 
L 174.779026 -144.00105 
L 174.499747 -144.00105 
L 174.220467 -144.00105 
L 173.941188 -144.00105 
L 173.661909 -144.00105 
L 173.38263 -144.00105 
L 173.10335 -144.00105 
L 172.824071 -144.00105 
L 172.544792 -144.00105 
L 172.265512 -144.00105 
L 171.986233 -144.00105 
L 171.706954 -144.00105 
L 171.427675 -144.00105 
L 171.148395 -144.00105 
L 170.869116 -144.00105 
L 170.589837 -144.00105 
L 170.310557 -144.00105 
L 170.031278 -144.00105 
L 169.751999 -144.00105 
L 169.47272 -144.00105 
L 169.19344 -144.00105 
L 168.914161 -144.00105 
L 168.634882 -144.00105 
L 168.355602 -144.00105 
L 168.076323 -144.00105 
L 167.797044 -144.00105 
L 167.517765 -144.00105 
L 167.238485 -135.68505 
L 166.959206 -135.68505 
L 166.679927 -135.68505 
L 166.400648 -135.68505 
L 166.121368 -135.68505 
L 165.842089 -135.68505 
L 165.56281 -135.68505 
L 165.28353 -135.68505 
L 165.004251 -135.68505 
L 164.724972 -135.68505 
L 164.445693 -135.68505 
L 164.166413 -135.68505 
L 163.887134 -135.68505 
L 163.607855 -135.68505 
L 163.328575 -135.68505 
L 163.049296 -135.68505 
L 162.770017 -135.68505 
L 162.490738 -135.68505 
L 162.211458 -135.68505 
L 161.932179 -135.68505 
L 161.6529 -135.68505 
L 161.37362 -135.68505 
L 161.094341 -135.68505 
L 160.815062 -135.68505 
L 160.535783 -135.68505 
L 160.256503 -135.68505 
L 159.977224 -135.68505 
L 159.697945 -135.68505 
L 159.418666 -135.68505 
L 159.139386 -135.68505 
L 158.860107 -135.68505 
L 158.580828 -135.68505 
L 158.301548 -135.68505 
L 158.022269 -135.68505 
L 157.74299 -135.68505 
L 157.463711 -135.68505 
L 157.184431 -135.68505 
L 156.905152 -135.68505 
L 156.625873 -135.68505 
L 156.346593 -135.68505 
L 156.067314 -135.68505 
L 155.788035 -135.68505 
L 155.508756 -135.68505 
L 155.229476 -135.68505 
L 154.950197 -135.68505 
L 154.670918 -135.68505 
L 154.391639 -135.68505 
L 154.112359 -135.68505 
L 153.83308 -135.68505 
L 153.553801 -135.68505 
L 153.274521 -127.36905 
L 152.995242 -127.36905 
L 152.715963 -127.36905 
L 152.436684 -127.36905 
L 152.157404 -127.36905 
L 151.878125 -127.36905 
L 151.598846 -127.36905 
L 151.319566 -127.36905 
L 151.040287 -127.36905 
L 150.761008 -127.36905 
L 150.481729 -127.36905 
L 150.202449 -127.36905 
L 149.92317 -127.36905 
L 149.643891 -127.36905 
L 149.364611 -127.36905 
L 149.085332 -127.36905 
L 148.806053 -127.36905 
L 148.526774 -127.36905 
L 148.247494 -127.36905 
L 147.968215 -127.36905 
L 147.688936 -127.36905 
L 147.409657 -127.36905 
L 147.130377 -127.36905 
L 146.851098 -127.36905 
L 146.571819 -127.36905 
L 146.292539 -127.36905 
L 146.01326 -127.36905 
L 145.733981 -127.36905 
L 145.454702 -127.36905 
L 145.175422 -127.36905 
L 144.896143 -127.36905 
L 144.616864 -127.36905 
L 144.337584 -127.36905 
L 144.058305 -127.36905 
L 143.779026 -127.36905 
L 143.499747 -127.36905 
L 143.220467 -127.36905 
L 142.941188 -127.36905 
L 142.661909 -127.36905 
L 142.38263 -127.36905 
L 142.10335 -127.36905 
L 141.824071 -127.36905 
L 141.544792 -127.36905 
L 141.265512 -127.36905 
L 140.986233 -127.36905 
L 140.706954 -127.36905 
L 140.427675 -127.36905 
L 140.148395 -127.36905 
L 139.869116 -127.36905 
L 139.589837 -127.36905 
L 139.310557 -119.05305 
L 139.031278 -119.05305 
L 138.751999 -119.05305 
L 138.47272 -119.05305 
L 138.19344 -119.05305 
L 137.914161 -119.05305 
L 137.634882 -119.05305 
L 137.355602 -119.05305 
L 137.076323 -119.05305 
L 136.797044 -119.05305 
L 136.517765 -119.05305 
L 136.238485 -119.05305 
L 135.959206 -119.05305 
L 135.679927 -119.05305 
L 135.400648 -119.05305 
L 135.121368 -119.05305 
L 134.842089 -119.05305 
L 134.56281 -119.05305 
L 134.28353 -119.05305 
L 134.004251 -119.05305 
L 133.724972 -119.05305 
L 133.445693 -119.05305 
L 133.166413 -119.05305 
L 132.887134 -119.05305 
L 132.607855 -119.05305 
L 132.328575 -119.05305 
L 132.049296 -119.05305 
L 131.770017 -119.05305 
L 131.490738 -119.05305 
L 131.211458 -119.05305 
L 130.932179 -119.05305 
L 130.6529 -119.05305 
L 130.37362 -119.05305 
L 130.094341 -119.05305 
L 129.815062 -119.05305 
L 129.535783 -119.05305 
L 129.256503 -119.05305 
L 128.977224 -119.05305 
L 128.697945 -119.05305 
L 128.418666 -119.05305 
L 128.139386 -119.05305 
L 127.860107 -119.05305 
L 127.580828 -119.05305 
L 127.301548 -119.05305 
L 127.022269 -119.05305 
L 126.74299 -119.05305 
L 126.463711 -119.05305 
L 126.184431 -119.05305 
L 125.905152 -119.05305 
L 125.625873 -119.05305 
L 125.346593 -110.73705 
L 125.067314 -110.73705 
L 124.788035 -110.73705 
L 124.508756 -110.73705 
L 124.229476 -110.73705 
L 123.950197 -110.73705 
L 123.670918 -110.73705 
L 123.391639 -110.73705 
L 123.112359 -110.73705 
L 122.83308 -110.73705 
L 122.553801 -110.73705 
L 122.274521 -110.73705 
L 121.995242 -110.73705 
L 121.715963 -110.73705 
L 121.436684 -110.73705 
L 121.157404 -110.73705 
L 120.878125 -110.73705 
L 120.598846 -110.73705 
L 120.319566 -110.73705 
L 120.040287 -110.73705 
L 119.761008 -110.73705 
L 119.481729 -110.73705 
L 119.202449 -110.73705 
L 118.92317 -110.73705 
L 118.643891 -110.73705 
L 118.364611 -110.73705 
L 118.085332 -110.73705 
L 117.806053 -110.73705 
L 117.526774 -110.73705 
L 117.247494 -110.73705 
L 116.968215 -110.73705 
L 116.688936 -110.73705 
L 116.409657 -110.73705 
L 116.130377 -110.73705 
L 115.851098 -110.73705 
L 115.571819 -110.73705 
L 115.292539 -110.73705 
L 115.01326 -110.73705 
L 114.733981 -110.73705 
L 114.454702 -110.73705 
L 114.175422 -110.73705 
L 113.896143 -110.73705 
L 113.616864 -110.73705 
L 113.337584 -110.73705 
L 113.058305 -110.73705 
L 112.779026 -110.73705 
L 112.499747 -110.73705 
L 112.220467 -110.73705 
L 111.941188 -110.73705 
L 111.661909 -110.73705 
L 111.38263 -101.58945 
L 111.10335 -101.58945 
L 110.824071 -101.58945 
L 110.544792 -101.58945 
L 110.265512 -101.58945 
L 109.986233 -101.58945 
L 109.706954 -101.58945 
L 109.427675 -101.58945 
L 109.148395 -101.58945 
L 108.869116 -101.58945 
L 108.589837 -101.58945 
L 108.310557 -101.58945 
L 108.031278 -101.58945 
L 107.751999 -101.58945 
L 107.47272 -101.58945 
L 107.19344 -101.58945 
L 106.914161 -101.58945 
L 106.634882 -101.58945 
L 106.355602 -101.58945 
L 106.076323 -101.58945 
L 105.797044 -101.58945 
L 105.517765 -101.58945 
L 105.238485 -101.58945 
L 104.959206 -101.58945 
L 104.679927 -101.58945 
L 104.400648 -101.58945 
L 104.121368 -101.58945 
L 103.842089 -101.58945 
L 103.56281 -101.58945 
L 103.28353 -101.58945 
L 103.004251 -101.58945 
L 102.724972 -101.58945 
L 102.445693 -101.58945 
L 102.166413 -101.58945 
L 101.887134 -101.58945 
L 101.607855 -101.58945 
L 101.328575 -101.58945 
L 101.049296 -101.58945 
L 100.770017 -101.58945 
L 100.490738 -101.58945 
L 100.211458 -101.58945 
L 99.932179 -101.58945 
L 99.6529 -101.58945 
L 99.37362 -101.58945 
L 99.094341 -101.58945 
L 98.815062 -101.58945 
L 98.535783 -101.58945 
L 98.256503 -101.58945 
L 97.977224 -101.58945 
L 97.697945 -101.58945 
L 97.418666 -92.44185 
L 97.139386 -92.44185 
L 96.860107 -92.44185 
L 96.580828 -92.44185 
L 96.301548 -92.44185 
L 96.022269 -92.44185 
L 95.74299 -92.44185 
L 95.463711 -92.44185 
L 95.184431 -92.44185 
L 94.905152 -92.44185 
L 94.625873 -92.44185 
L 94.346593 -92.44185 
L 94.067314 -92.44185 
L 93.788035 -92.44185 
L 93.508756 -92.44185 
L 93.229476 -92.44185 
L 92.950197 -92.44185 
L 92.670918 -92.44185 
L 92.391639 -92.44185 
L 92.112359 -92.44185 
L 91.83308 -92.44185 
L 91.553801 -92.44185 
L 91.274521 -92.44185 
L 90.995242 -92.44185 
L 90.715963 -92.44185 
L 90.436684 -92.44185 
L 90.157404 -92.44185 
L 89.878125 -92.44185 
L 89.598846 -92.44185 
L 89.319566 -92.44185 
L 89.040287 -92.44185 
L 88.761008 -92.44185 
L 88.481729 -92.44185 
L 88.202449 -92.44185 
L 87.92317 -92.44185 
L 87.643891 -92.44185 
L 87.364611 -92.44185 
L 87.085332 -92.44185 
L 86.806053 -92.44185 
L 86.526774 -92.44185 
L 86.247494 -92.44185 
L 85.968215 -92.44185 
L 85.688936 -92.44185 
L 85.409657 -92.44185 
L 85.130377 -92.44185 
L 84.851098 -92.44185 
L 84.571819 -92.44185 
L 84.292539 -92.44185 
L 84.01326 -92.44185 
L 83.733981 -92.44185 
L 83.454702 -83.29425 
L 83.175422 -83.29425 
L 82.896143 -83.29425 
L 82.616864 -83.29425 
L 82.337584 -83.29425 
L 82.058305 -83.29425 
L 81.779026 -83.29425 
L 81.499747 -83.29425 
L 81.220467 -83.29425 
L 80.941188 -83.29425 
L 80.661909 -83.29425 
L 80.38263 -83.29425 
L 80.10335 -83.29425 
L 79.824071 -83.29425 
L 79.544792 -83.29425 
L 79.265512 -83.29425 
L 78.986233 -83.29425 
L 78.706954 -83.29425 
L 78.427675 -83.29425 
L 78.148395 -83.29425 
L 77.869116 -83.29425 
L 77.589837 -83.29425 
L 77.310557 -83.29425 
L 77.031278 -83.29425 
L 76.751999 -83.29425 
L 76.47272 -83.29425 
L 76.19344 -83.29425 
L 75.914161 -83.29425 
L 75.634882 -83.29425 
L 75.355602 -83.29425 
L 75.076323 -83.29425 
L 74.797044 -83.29425 
L 74.517765 -83.29425 
L 74.238485 -83.29425 
L 73.959206 -83.29425 
L 73.679927 -83.29425 
L 73.400648 -83.29425 
L 73.121368 -83.29425 
L 72.842089 -83.29425 
L 72.56281 -83.29425 
L 72.28353 -83.29425 
L 72.004251 -83.29425 
L 71.724972 -83.29425 
L 71.445693 -83.29425 
L 71.166413 -83.29425 
L 70.887134 -83.29425 
L 70.607855 -83.29425 
L 70.328575 -83.29425 
L 70.049296 -83.29425 
L 69.770017 -83.29425 
L 69.490738 -74.14665 
L 69.211458 -74.14665 
L 68.932179 -74.14665 
L 68.6529 -74.14665 
L 68.37362 -74.14665 
L 68.094341 -74.14665 
L 67.815062 -74.14665 
L 67.535783 -74.14665 
L 67.256503 -74.14665 
L 66.977224 -74.14665 
L 66.697945 -74.14665 
L 66.418666 -74.14665 
L 66.139386 -74.14665 
L 65.860107 -74.14665 
L 65.580828 -74.14665 
L 65.301548 -74.14665 
L 65.022269 -74.14665 
L 64.74299 -74.14665 
L 64.463711 -74.14665 
L 64.184431 -74.14665 
L 63.905152 -74.14665 
L 63.625873 -74.14665 
L 63.346593 -74.14665 
L 63.067314 -74.14665 
L 62.788035 -74.14665 
L 62.508756 -74.14665 
L 62.229476 -74.14665 
L 61.950197 -74.14665 
L 61.670918 -74.14665 
L 61.391639 -74.14665 
L 61.112359 -74.14665 
L 60.83308 -74.14665 
L 60.553801 -74.14665 
L 60.274521 -74.14665 
L 59.995242 -74.14665 
L 59.715963 -74.14665 
L 59.436684 -74.14665 
L 59.157404 -74.14665 
L 58.878125 -74.14665 
L 58.598846 -74.14665 
L 58.319566 -74.14665 
L 58.040287 -74.14665 
L 57.761008 -74.14665 
L 57.481729 -74.14665 
L 57.202449 -74.14665 
L 56.92317 -74.14665 
L 56.643891 -74.14665 
L 56.364611 -74.14665 
L 56.085332 -74.14665 
L 55.806053 -74.14665 
L 55.526774 -64.16745 
L 55.247494 -64.16745 
L 54.968215 -64.16745 
L 54.688936 -64.16745 
L 54.409657 -64.16745 
L 54.130377 -64.16745 
L 53.851098 -64.16745 
L 53.571819 -64.16745 
L 53.292539 -64.16745 
L 53.01326 -64.16745 
L 52.733981 -64.16745 
L 52.454702 -64.16745 
L 52.175422 -64.16745 
L 51.896143 -64.16745 
L 51.616864 -64.16745 
L 51.337584 -64.16745 
L 51.058305 -64.16745 
L 50.779026 -64.16745 
L 50.499747 -64.16745 
L 50.220467 -64.16745 
L 49.941188 -64.16745 
L 49.661909 -64.16745 
L 49.38263 -64.16745 
L 49.10335 -64.16745 
L 48.824071 -64.16745 
L 48.544792 -64.16745 
L 48.265512 -64.16745 
L 47.986233 -64.16745 
L 47.706954 -64.16745 
L 47.427675 -64.16745 
L 47.148395 -64.16745 
L 46.869116 -64.16745 
L 46.589837 -64.16745 
L 46.310557 -64.16745 
L 46.031278 -64.16745 
L 45.751999 -64.16745 
L 45.47272 -64.16745 
L 45.19344 -64.16745 
L 44.914161 -64.16745 
L 44.634882 -64.16745 
L 44.355602 -64.16745 
L 44.076323 -64.16745 
L 43.797044 -64.16745 
L 43.517765 -64.16745 
L 43.238485 -64.16745 
L 42.959206 -64.16745 
L 42.679927 -64.16745 
L 42.400648 -64.16745 
L 42.121368 -64.16745 
L 41.842089 -64.16745 
L 41.56281 -53.35665 
L 41.28353 -53.35665 
L 41.004251 -53.35665 
L 40.724972 -53.35665 
L 40.445693 -53.35665 
L 40.166413 -53.35665 
L 39.887134 -53.35665 
L 39.607855 -53.35665 
L 39.328575 -53.35665 
L 39.049296 -53.35665 
L 38.770017 -53.35665 
L 38.490738 -53.35665 
L 38.211458 -53.35665 
L 37.932179 -53.35665 
L 37.6529 -53.35665 
L 37.37362 -53.35665 
L 37.094341 -53.35665 
L 36.815062 -53.35665 
L 36.535783 -53.35665 
L 36.256503 -53.35665 
L 35.977224 -53.35665 
L 35.697945 -53.35665 
L 35.418666 -53.35665 
L 35.139386 -53.35665 
L 34.860107 -53.35665 
L 34.580828 -53.35665 
L 34.301548 -53.35665 
L 34.022269 -53.35665 
L 33.74299 -53.35665 
L 33.463711 -53.35665 
L 33.184431 -53.35665 
L 32.905152 -53.35665 
L 32.625873 -53.35665 
L 32.346593 -53.35665 
L 32.067314 -53.35665 
L 31.788035 -53.35665 
L 31.508756 -53.35665 
L 31.229476 -53.35665 
L 30.950197 -53.35665 
L 30.670918 -53.35665 
L 30.391639 -53.35665 
L 30.112359 -53.35665 
L 29.83308 -53.35665 
L 29.553801 -53.35665 
L 29.274521 -53.35665 
L 28.995242 -53.35665 
L 28.715963 -53.35665 
L 28.436684 -53.35665 
L 28.157404 -53.35665 
L 27.878125 -53.35665 
z
" style="stroke: #808080; stroke-opacity: 0.3"/>
    </defs>
    <g clip-path="url(#pa161e4de25)">
     <use xlink:href="#m0b9cc62eb3" x="0" y="211.07625" style="fill: #808080; fill-opacity: 0.3; stroke: #808080; stroke-opacity: 0.3"/>
    </g>
   </g>
   <g id="matplotlib.axis_1">
    <g id="xtick_1">
     <g id="line2d_1">
      <defs>
       <path id="ma442f79667" d="M 0 0 
L 0 3.5 
" style="stroke: #000000; stroke-width: 0.8"/>
      </defs>
      <g>
       <use xlink:href="#ma442f79667" x="27.878125" y="173.52" style="stroke: #000000; stroke-width: 0.8"/>
      </g>
     </g>
     <g id="text_1">
      <!-- 0 -->
      <g transform="translate(24.696875 188.118438) scale(0.1 -0.1)">
       <defs>
        <path id="DejaVuSans-30" d="M 2034 4250 
Q 1547 4250 1301 3770 
Q 1056 3291 1056 2328 
Q 1056 1369 1301 889 
Q 1547 409 2034 409 
Q 2525 409 2770 889 
Q 3016 1369 3016 2328 
Q 3016 3291 2770 3770 
Q 2525 4250 2034 4250 
z
M 2034 4750 
Q 2819 4750 3233 4129 
Q 3647 3509 3647 2328 
Q 3647 1150 3233 529 
Q 2819 -91 2034 -91 
Q 1250 -91 836 529 
Q 422 1150 422 2328 
Q 422 3509 836 4129 
Q 1250 4750 2034 4750 
z
" transform="scale(0.015625)"/>
       </defs>
       <use xlink:href="#DejaVuSans-30"/>
      </g>
     </g>
    </g>
    <g id="xtick_2">
     <g id="line2d_2">
      <g>
       <use xlink:href="#ma442f79667" x="167.378125" y="173.52" style="stroke: #000000; stroke-width: 0.8"/>
      </g>
     </g>
     <g id="text_2">
      <!-- 10 -->
      <g transform="translate(161.015625 188.118438) scale(0.1 -0.1)">
       <defs>
        <path id="DejaVuSans-31" d="M 794 531 
L 1825 531 
L 1825 4091 
L 703 3866 
L 703 4441 
L 1819 4666 
L 2450 4666 
L 2450 531 
L 3481 531 
L 3481 0 
L 794 0 
L 794 531 
z
" transform="scale(0.015625)"/>
       </defs>
       <use xlink:href="#DejaVuSans-31"/>
       <use xlink:href="#DejaVuSans-30" transform="translate(63.623047 0)"/>
      </g>
     </g>
    </g>
    <g id="xtick_3">
     <g id="line2d_3">
      <g>
       <use xlink:href="#ma442f79667" x="306.878125" y="173.52" style="stroke: #000000; stroke-width: 0.8"/>
      </g>
     </g>
     <g id="text_3">
      <!-- 20 -->
      <g transform="translate(300.515625 188.118438) scale(0.1 -0.1)">
       <defs>
        <path id="DejaVuSans-32" d="M 1228 531 
L 3431 531 
L 3431 0 
L 469 0 
L 469 531 
Q 828 903 1448 1529 
Q 2069 2156 2228 2338 
Q 2531 2678 2651 2914 
Q 2772 3150 2772 3378 
Q 2772 3750 2511 3984 
Q 2250 4219 1831 4219 
Q 1534 4219 1204 4116 
Q 875 4013 500 3803 
L 500 4441 
Q 881 4594 1212 4672 
Q 1544 4750 1819 4750 
Q 2544 4750 2975 4387 
Q 3406 4025 3406 3419 
Q 3406 3131 3298 2873 
Q 3191 2616 2906 2266 
Q 2828 2175 2409 1742 
Q 1991 1309 1228 531 
z
" transform="scale(0.015625)"/>
       </defs>
       <use xlink:href="#DejaVuSans-32"/>
       <use xlink:href="#DejaVuSans-30" transform="translate(63.623047 0)"/>
      </g>
     </g>
    </g>
    <g id="text_4">
     <!-- posterior rank -->
     <g transform="translate(132.171094 201.796563) scale(0.1 -0.1)">
      <defs>
       <path id="DejaVuSans-70" d="M 1159 525 
L 1159 -1331 
L 581 -1331 
L 581 3500 
L 1159 3500 
L 1159 2969 
Q 1341 3281 1617 3432 
Q 1894 3584 2278 3584 
Q 2916 3584 3314 3078 
Q 3713 2572 3713 1747 
Q 3713 922 3314 415 
Q 2916 -91 2278 -91 
Q 1894 -91 1617 61 
Q 1341 213 1159 525 
z
M 3116 1747 
Q 3116 2381 2855 2742 
Q 2594 3103 2138 3103 
Q 1681 3103 1420 2742 
Q 1159 2381 1159 1747 
Q 1159 1113 1420 752 
Q 1681 391 2138 391 
Q 2594 391 2855 752 
Q 3116 1113 3116 1747 
z
" transform="scale(0.015625)"/>
       <path id="DejaVuSans-6f" d="M 1959 3097 
Q 1497 3097 1228 2736 
Q 959 2375 959 1747 
Q 959 1119 1226 758 
Q 1494 397 1959 397 
Q 2419 397 2687 759 
Q 2956 1122 2956 1747 
Q 2956 2369 2687 2733 
Q 2419 3097 1959 3097 
z
M 1959 3584 
Q 2709 3584 3137 3096 
Q 3566 2609 3566 1747 
Q 3566 888 3137 398 
Q 2709 -91 1959 -91 
Q 1206 -91 779 398 
Q 353 888 353 1747 
Q 353 2609 779 3096 
Q 1206 3584 1959 3584 
z
" transform="scale(0.015625)"/>
       <path id="DejaVuSans-73" d="M 2834 3397 
L 2834 2853 
Q 2591 2978 2328 3040 
Q 2066 3103 1784 3103 
Q 1356 3103 1142 2972 
Q 928 2841 928 2578 
Q 928 2378 1081 2264 
Q 1234 2150 1697 2047 
L 1894 2003 
Q 2506 1872 2764 1633 
Q 3022 1394 3022 966 
Q 3022 478 2636 193 
Q 2250 -91 1575 -91 
Q 1294 -91 989 -36 
Q 684 19 347 128 
L 347 722 
Q 666 556 975 473 
Q 1284 391 1588 391 
Q 1994 391 2212 530 
Q 2431 669 2431 922 
Q 2431 1156 2273 1281 
Q 2116 1406 1581 1522 
L 1381 1569 
Q 847 1681 609 1914 
Q 372 2147 372 2553 
Q 372 3047 722 3315 
Q 1072 3584 1716 3584 
Q 2034 3584 2315 3537 
Q 2597 3491 2834 3397 
z
" transform="scale(0.015625)"/>
       <path id="DejaVuSans-74" d="M 1172 4494 
L 1172 3500 
L 2356 3500 
L 2356 3053 
L 1172 3053 
L 1172 1153 
Q 1172 725 1289 603 
Q 1406 481 1766 481 
L 2356 481 
L 2356 0 
L 1766 0 
Q 1100 0 847 248 
Q 594 497 594 1153 
L 594 3053 
L 172 3053 
L 172 3500 
L 594 3500 
L 594 4494 
L 1172 4494 
z
" transform="scale(0.015625)"/>
       <path id="DejaVuSans-65" d="M 3597 1894 
L 3597 1613 
L 953 1613 
Q 991 1019 1311 708 
Q 1631 397 2203 397 
Q 2534 397 2845 478 
Q 3156 559 3463 722 
L 3463 178 
Q 3153 47 2828 -22 
Q 2503 -91 2169 -91 
Q 1331 -91 842 396 
Q 353 884 353 1716 
Q 353 2575 817 3079 
Q 1281 3584 2069 3584 
Q 2775 3584 3186 3129 
Q 3597 2675 3597 1894 
z
M 3022 2063 
Q 3016 2534 2758 2815 
Q 2500 3097 2075 3097 
Q 1594 3097 1305 2825 
Q 1016 2553 972 2059 
L 3022 2063 
z
" transform="scale(0.015625)"/>
       <path id="DejaVuSans-72" d="M 2631 2963 
Q 2534 3019 2420 3045 
Q 2306 3072 2169 3072 
Q 1681 3072 1420 2755 
Q 1159 2438 1159 1844 
L 1159 0 
L 581 0 
L 581 3500 
L 1159 3500 
L 1159 2956 
Q 1341 3275 1631 3429 
Q 1922 3584 2338 3584 
Q 2397 3584 2469 3576 
Q 2541 3569 2628 3553 
L 2631 2963 
z
" transform="scale(0.015625)"/>
       <path id="DejaVuSans-69" d="M 603 3500 
L 1178 3500 
L 1178 0 
L 603 0 
L 603 3500 
z
M 603 4863 
L 1178 4863 
L 1178 4134 
L 603 4134 
L 603 4863 
z
" transform="scale(0.015625)"/>
       <path id="DejaVuSans-20" transform="scale(0.015625)"/>
       <path id="DejaVuSans-61" d="M 2194 1759 
Q 1497 1759 1228 1600 
Q 959 1441 959 1056 
Q 959 750 1161 570 
Q 1363 391 1709 391 
Q 2188 391 2477 730 
Q 2766 1069 2766 1631 
L 2766 1759 
L 2194 1759 
z
M 3341 1997 
L 3341 0 
L 2766 0 
L 2766 531 
Q 2569 213 2275 61 
Q 1981 -91 1556 -91 
Q 1019 -91 701 211 
Q 384 513 384 1019 
Q 384 1609 779 1909 
Q 1175 2209 1959 2209 
L 2766 2209 
L 2766 2266 
Q 2766 2663 2505 2880 
Q 2244 3097 1772 3097 
Q 1472 3097 1187 3025 
Q 903 2953 641 2809 
L 641 3341 
Q 956 3463 1253 3523 
Q 1550 3584 1831 3584 
Q 2591 3584 2966 3190 
Q 3341 2797 3341 1997 
z
" transform="scale(0.015625)"/>
       <path id="DejaVuSans-6e" d="M 3513 2113 
L 3513 0 
L 2938 0 
L 2938 2094 
Q 2938 2591 2744 2837 
Q 2550 3084 2163 3084 
Q 1697 3084 1428 2787 
Q 1159 2491 1159 1978 
L 1159 0 
L 581 0 
L 581 3500 
L 1159 3500 
L 1159 2956 
Q 1366 3272 1645 3428 
Q 1925 3584 2291 3584 
Q 2894 3584 3203 3211 
Q 3513 2838 3513 2113 
z
" transform="scale(0.015625)"/>
       <path id="DejaVuSans-6b" d="M 581 4863 
L 1159 4863 
L 1159 1991 
L 2875 3500 
L 3609 3500 
L 1753 1863 
L 3688 0 
L 2938 0 
L 1159 1709 
L 1159 0 
L 581 0 
L 581 4863 
z
" transform="scale(0.015625)"/>
      </defs>
      <use xlink:href="#DejaVuSans-70"/>
      <use xlink:href="#DejaVuSans-6f" transform="translate(63.476562 0)"/>
      <use xlink:href="#DejaVuSans-73" transform="translate(124.658203 0)"/>
      <use xlink:href="#DejaVuSans-74" transform="translate(176.757812 0)"/>
      <use xlink:href="#DejaVuSans-65" transform="translate(215.966797 0)"/>
      <use xlink:href="#DejaVuSans-72" transform="translate(277.490234 0)"/>
      <use xlink:href="#DejaVuSans-69" transform="translate(318.603516 0)"/>
      <use xlink:href="#DejaVuSans-6f" transform="translate(346.386719 0)"/>
      <use xlink:href="#DejaVuSans-72" transform="translate(407.568359 0)"/>
      <use xlink:href="#DejaVuSans-20" transform="translate(448.681641 0)"/>
      <use xlink:href="#DejaVuSans-72" transform="translate(480.46875 0)"/>
      <use xlink:href="#DejaVuSans-61" transform="translate(521.582031 0)"/>
      <use xlink:href="#DejaVuSans-6e" transform="translate(582.861328 0)"/>
      <use xlink:href="#DejaVuSans-6b" transform="translate(646.240234 0)"/>
     </g>
    </g>
   </g>
   <g id="matplotlib.axis_2">
    <g id="ytick_1">
     <g id="line2d_4">
      <defs>
       <path id="mf4716b6af0" d="M 0 0 
L -3.5 0 
" style="stroke: #000000; stroke-width: 0.8"/>
      </defs>
      <g>
       <use xlink:href="#mf4716b6af0" x="27.878125" y="173.52" style="stroke: #000000; stroke-width: 0.8"/>
      </g>
     </g>
    </g>
    <g id="ytick_2">
     <g id="line2d_5">
      <g>
       <use xlink:href="#mf4716b6af0" x="27.878125" y="90.36" style="stroke: #000000; stroke-width: 0.8"/>
      </g>
     </g>
    </g>
    <g id="ytick_3">
     <g id="line2d_6">
      <g>
       <use xlink:href="#mf4716b6af0" x="27.878125" y="7.2" style="stroke: #000000; stroke-width: 0.8"/>
      </g>
     </g>
    </g>
    <g id="text_5">
     <!-- empirical CDF -->
     <g transform="translate(14.798437 125.323281) rotate(-90) scale(0.1 -0.1)">
      <defs>
       <path id="DejaVuSans-6d" d="M 3328 2828 
Q 3544 3216 3844 3400 
Q 4144 3584 4550 3584 
Q 5097 3584 5394 3201 
Q 5691 2819 5691 2113 
L 5691 0 
L 5113 0 
L 5113 2094 
Q 5113 2597 4934 2840 
Q 4756 3084 4391 3084 
Q 3944 3084 3684 2787 
Q 3425 2491 3425 1978 
L 3425 0 
L 2847 0 
L 2847 2094 
Q 2847 2600 2669 2842 
Q 2491 3084 2119 3084 
Q 1678 3084 1418 2786 
Q 1159 2488 1159 1978 
L 1159 0 
L 581 0 
L 581 3500 
L 1159 3500 
L 1159 2956 
Q 1356 3278 1631 3431 
Q 1906 3584 2284 3584 
Q 2666 3584 2933 3390 
Q 3200 3197 3328 2828 
z
" transform="scale(0.015625)"/>
       <path id="DejaVuSans-63" d="M 3122 3366 
L 3122 2828 
Q 2878 2963 2633 3030 
Q 2388 3097 2138 3097 
Q 1578 3097 1268 2742 
Q 959 2388 959 1747 
Q 959 1106 1268 751 
Q 1578 397 2138 397 
Q 2388 397 2633 464 
Q 2878 531 3122 666 
L 3122 134 
Q 2881 22 2623 -34 
Q 2366 -91 2075 -91 
Q 1284 -91 818 406 
Q 353 903 353 1747 
Q 353 2603 823 3093 
Q 1294 3584 2113 3584 
Q 2378 3584 2631 3529 
Q 2884 3475 3122 3366 
z
" transform="scale(0.015625)"/>
       <path id="DejaVuSans-6c" d="M 603 4863 
L 1178 4863 
L 1178 0 
L 603 0 
L 603 4863 
z
" transform="scale(0.015625)"/>
       <path id="DejaVuSans-43" d="M 4122 4306 
L 4122 3641 
Q 3803 3938 3442 4084 
Q 3081 4231 2675 4231 
Q 1875 4231 1450 3742 
Q 1025 3253 1025 2328 
Q 1025 1406 1450 917 
Q 1875 428 2675 428 
Q 3081 428 3442 575 
Q 3803 722 4122 1019 
L 4122 359 
Q 3791 134 3420 21 
Q 3050 -91 2638 -91 
Q 1578 -91 968 557 
Q 359 1206 359 2328 
Q 359 3453 968 4101 
Q 1578 4750 2638 4750 
Q 3056 4750 3426 4639 
Q 3797 4528 4122 4306 
z
" transform="scale(0.015625)"/>
       <path id="DejaVuSans-44" d="M 1259 4147 
L 1259 519 
L 2022 519 
Q 2988 519 3436 956 
Q 3884 1394 3884 2338 
Q 3884 3275 3436 3711 
Q 2988 4147 2022 4147 
L 1259 4147 
z
M 628 4666 
L 1925 4666 
Q 3281 4666 3915 4102 
Q 4550 3538 4550 2338 
Q 4550 1131 3912 565 
Q 3275 0 1925 0 
L 628 0 
L 628 4666 
z
" transform="scale(0.015625)"/>
       <path id="DejaVuSans-46" d="M 628 4666 
L 3309 4666 
L 3309 4134 
L 1259 4134 
L 1259 2759 
L 3109 2759 
L 3109 2228 
L 1259 2228 
L 1259 0 
L 628 0 
L 628 4666 
z
" transform="scale(0.015625)"/>
      </defs>
      <use xlink:href="#DejaVuSans-65"/>
      <use xlink:href="#DejaVuSans-6d" transform="translate(61.523438 0)"/>
      <use xlink:href="#DejaVuSans-70" transform="translate(158.935547 0)"/>
      <use xlink:href="#DejaVuSans-69" transform="translate(222.412109 0)"/>
      <use xlink:href="#DejaVuSans-72" transform="translate(250.195312 0)"/>
      <use xlink:href="#DejaVuSans-69" transform="translate(291.308594 0)"/>
      <use xlink:href="#DejaVuSans-63" transform="translate(319.091797 0)"/>
      <use xlink:href="#DejaVuSans-61" transform="translate(374.072266 0)"/>
      <use xlink:href="#DejaVuSans-6c" transform="translate(435.351562 0)"/>
      <use xlink:href="#DejaVuSans-20" transform="translate(463.134766 0)"/>
      <use xlink:href="#DejaVuSans-43" transform="translate(494.921875 0)"/>
      <use xlink:href="#DejaVuSans-44" transform="translate(564.746094 0)"/>
      <use xlink:href="#DejaVuSans-46" transform="translate(641.748047 0)"/>
     </g>
    </g>
   </g>
   <g id="line2d_7">
    <path d="M 27.878125 165.204 
L 41.56281 165.204 
L 41.842089 158.5512 
L 55.526774 158.5512 
L 55.806053 151.0668 
L 69.490738 151.0668 
L 69.770017 141.9192 
L 83.454702 141.9192 
L 83.733981 131.94 
L 97.418666 131.94 
L 97.697945 123.624 
L 111.38263 123.624 
L 111.661909 114.4764 
L 125.346593 114.4764 
L 125.625873 111.15 
L 139.310557 111.15 
L 139.589837 99.5076 
L 153.274521 99.5076 
L 153.553801 92.8548 
L 167.238485 92.8548 
L 167.517765 85.3704 
L 181.202449 85.3704 
L 181.481729 77.0544 
L 195.166413 77.0544 
L 195.445693 67.0752 
L 209.130377 67.0752 
L 209.409657 57.096 
L 223.094341 57.096 
L 223.37362 52.1064 
L 237.058305 52.1064 
L 237.337584 42.9588 
L 251.022269 42.9588 
L 251.301548 34.6428 
L 264.986233 34.6428 
L 265.265512 26.3268 
L 278.950197 26.3268 
L 279.229476 18.0108 
L 292.914161 18.0108 
L 293.19344 7.2 
L 306.878125 7.2 
L 306.878125 7.2 
" clip-path="url(#pa161e4de25)" style="fill: none; stroke: #ffd700; stroke-opacity: 0.8; stroke-width: 1.5; stroke-linecap: square"/>
   </g>
   <g id="line2d_8">
    <path d="M 27.878125 156.0564 
L 41.56281 156.0564 
L 41.842089 151.0668 
L 55.526774 151.0668 
L 55.806053 142.7508 
L 69.490738 142.7508 
L 69.770017 136.9296 
L 83.454702 136.9296 
L 83.733981 129.4452 
L 97.418666 129.4452 
L 97.697945 124.4556 
L 111.38263 124.4556 
L 111.661909 118.6344 
L 125.346593 118.6344 
L 125.625873 114.4764 
L 139.310557 114.4764 
L 139.589837 109.4868 
L 153.274521 109.4868 
L 153.553801 103.6656 
L 167.238485 103.6656 
L 167.517765 99.5076 
L 181.202449 99.5076 
L 181.481729 88.6968 
L 195.166413 88.6968 
L 195.445693 86.202 
L 209.130377 86.202 
L 209.409657 74.5596 
L 223.094341 74.5596 
L 223.37362 64.5804 
L 237.058305 64.5804 
L 237.337584 58.7592 
L 251.022269 58.7592 
L 251.301548 48.78 
L 264.986233 48.78 
L 265.265512 33.8112 
L 278.950197 33.8112 
L 279.229476 24.6636 
L 292.914161 24.6636 
L 293.19344 7.2 
L 306.878125 7.2 
L 306.878125 7.2 
" clip-path="url(#pa161e4de25)" style="fill: none; stroke: #ff69b4; stroke-opacity: 0.8; stroke-width: 1.5; stroke-linecap: square"/>
   </g>
   <g id="line2d_9">
    <path d="M 27.878125 159.3828 
L 41.56281 159.3828 
L 41.842089 148.572 
L 55.526774 148.572 
L 55.806053 136.9296 
L 69.490738 136.9296 
L 69.770017 125.2872 
L 83.454702 125.2872 
L 83.733981 116.9712 
L 97.418666 116.9712 
L 97.697945 112.8132 
L 111.38263 112.8132 
L 111.661909 106.992 
L 125.346593 106.992 
L 125.625873 103.6656 
L 139.310557 103.6656 
L 139.589837 95.3496 
L 153.274521 95.3496 
L 153.553801 87.0336 
L 167.238485 87.0336 
L 167.517765 82.044 
L 181.202449 82.044 
L 181.481729 77.0544 
L 195.166413 77.0544 
L 195.445693 73.728 
L 209.130377 73.728 
L 209.409657 67.9068 
L 223.094341 67.9068 
L 223.37362 60.4224 
L 237.058305 60.4224 
L 237.337584 54.6012 
L 251.022269 54.6012 
L 251.301548 46.2852 
L 264.986233 46.2852 
L 265.265512 37.1376 
L 278.950197 37.1376 
L 279.229476 23.832 
L 292.914161 23.832 
L 293.19344 7.2 
L 306.878125 7.2 
L 306.878125 7.2 
" clip-path="url(#pa161e4de25)" style="fill: none; stroke: #32cd32; stroke-opacity: 0.8; stroke-width: 1.5; stroke-linecap: square"/>
   </g>
   <g id="line2d_10">
    <path d="M 27.878125 161.046 
L 41.56281 161.046 
L 41.842089 146.9088 
L 55.526774 146.9088 
L 55.806053 139.4244 
L 69.490738 139.4244 
L 69.770017 136.098 
L 83.454702 136.098 
L 83.733981 126.9504 
L 97.418666 126.9504 
L 97.697945 123.624 
L 111.38263 123.624 
L 111.661909 117.8028 
L 125.346593 117.8028 
L 125.625873 114.4764 
L 139.310557 114.4764 
L 139.589837 104.4972 
L 153.274521 104.4972 
L 153.553801 100.3392 
L 167.238485 100.3392 
L 167.517765 97.8444 
L 181.202449 97.8444 
L 181.481729 92.0232 
L 195.166413 92.0232 
L 195.445693 86.202 
L 209.130377 86.202 
L 209.409657 77.886 
L 223.094341 77.886 
L 223.37362 72.8964 
L 237.058305 72.8964 
L 237.337584 64.5804 
L 251.022269 64.5804 
L 251.301548 54.6012 
L 264.986233 54.6012 
L 265.265512 42.9588 
L 278.950197 42.9588 
L 279.229476 32.9796 
L 292.914161 32.9796 
L 293.19344 7.2 
L 306.878125 7.2 
L 306.878125 7.2 
" clip-path="url(#pa161e4de25)" style="fill: none; stroke: #dc143c; stroke-opacity: 0.8; stroke-width: 1.5; stroke-linecap: square"/>
   </g>
   <g id="line2d_11">
    <path d="M 27.878125 165.204 
L 41.56281 165.204 
L 41.842089 152.73 
L 55.526774 152.73 
L 55.806053 146.0772 
L 69.490738 146.0772 
L 69.770017 136.098 
L 83.454702 136.098 
L 83.733981 128.6136 
L 97.418666 128.6136 
L 97.697945 116.1396 
L 111.38263 116.1396 
L 111.661909 109.4868 
L 125.346593 109.4868 
L 125.625873 103.6656 
L 139.310557 103.6656 
L 139.589837 96.1812 
L 153.274521 96.1812 
L 153.553801 94.518 
L 167.238485 94.518 
L 167.517765 88.6968 
L 181.202449 88.6968 
L 181.481729 81.2124 
L 195.166413 81.2124 
L 195.445693 72.0648 
L 209.130377 72.0648 
L 209.409657 69.57 
L 223.094341 69.57 
L 223.37362 57.096 
L 237.058305 57.096 
L 237.337584 48.78 
L 251.022269 48.78 
L 251.301548 44.622 
L 264.986233 44.622 
L 265.265512 35.4744 
L 278.950197 35.4744 
L 279.229476 23.832 
L 292.914161 23.832 
L 293.19344 7.2 
L 306.878125 7.2 
L 306.878125 7.2 
" clip-path="url(#pa161e4de25)" style="fill: none; stroke: #6495ed; stroke-opacity: 0.8; stroke-width: 1.5; stroke-linecap: square"/>
   </g>
   <g id="patch_3">
    <path d="M 27.878125 173.52 
L 27.878125 7.2 
" style="fill: none; stroke: #000000; stroke-width: 0.8; stroke-linejoin: miter; stroke-linecap: square"/>
   </g>
   <g id="patch_4">
    <path d="M 27.878125 173.52 
L 306.878125 173.52 
" style="fill: none; stroke: #000000; stroke-width: 0.8; stroke-linejoin: miter; stroke-linecap: square"/>
   </g>
   <g id="legend_1">
    <g id="patch_5">
     <path d="M 34.878125 103.26875 
L 200.226562 103.26875 
Q 202.226562 103.26875 202.226562 101.26875 
L 202.226562 14.2 
Q 202.226562 12.2 200.226562 12.2 
L 34.878125 12.2 
Q 32.878125 12.2 32.878125 14.2 
L 32.878125 101.26875 
Q 32.878125 103.26875 34.878125 103.26875 
z
" style="fill: #ffffff; opacity: 0.8; stroke: #cccccc; stroke-linejoin: miter"/>
    </g>
    <g id="line2d_12">
     <path d="M 36.878125 20.298438 
L 46.878125 20.298438 
L 56.878125 20.298438 
" style="fill: none; stroke: #ffd700; stroke-opacity: 0.8; stroke-width: 1.5; stroke-linecap: square"/>
    </g>
    <g id="text_6">
     <!-- gL -->
     <g transform="translate(64.878125 23.798438) scale(0.1 -0.1)">
      <defs>
       <path id="DejaVuSans-67" d="M 2906 1791 
Q 2906 2416 2648 2759 
Q 2391 3103 1925 3103 
Q 1463 3103 1205 2759 
Q 947 2416 947 1791 
Q 947 1169 1205 825 
Q 1463 481 1925 481 
Q 2391 481 2648 825 
Q 2906 1169 2906 1791 
z
M 3481 434 
Q 3481 -459 3084 -895 
Q 2688 -1331 1869 -1331 
Q 1566 -1331 1297 -1286 
Q 1028 -1241 775 -1147 
L 775 -588 
Q 1028 -725 1275 -790 
Q 1522 -856 1778 -856 
Q 2344 -856 2625 -561 
Q 2906 -266 2906 331 
L 2906 616 
Q 2728 306 2450 153 
Q 2172 0 1784 0 
Q 1141 0 747 490 
Q 353 981 353 1791 
Q 353 2603 747 3093 
Q 1141 3584 1784 3584 
Q 2172 3584 2450 3431 
Q 2728 3278 2906 2969 
L 2906 3500 
L 3481 3500 
L 3481 434 
z
" transform="scale(0.015625)"/>
       <path id="DejaVuSans-4c" d="M 628 4666 
L 1259 4666 
L 1259 531 
L 3531 531 
L 3531 0 
L 628 0 
L 628 4666 
z
" transform="scale(0.015625)"/>
      </defs>
      <use xlink:href="#DejaVuSans-67"/>
      <use xlink:href="#DejaVuSans-4c" transform="translate(63.476562 0)"/>
     </g>
    </g>
    <g id="line2d_13">
     <path d="M 36.878125 34.976562 
L 46.878125 34.976562 
L 56.878125 34.976562 
" style="fill: none; stroke: #ff69b4; stroke-opacity: 0.8; stroke-width: 1.5; stroke-linecap: square"/>
    </g>
    <g id="text_7">
     <!-- VL -->
     <g transform="translate(64.878125 38.476562) scale(0.1 -0.1)">
      <defs>
       <path id="DejaVuSans-56" d="M 1831 0 
L 50 4666 
L 709 4666 
L 2188 738 
L 3669 4666 
L 4325 4666 
L 2547 0 
L 1831 0 
z
" transform="scale(0.015625)"/>
      </defs>
      <use xlink:href="#DejaVuSans-56"/>
      <use xlink:href="#DejaVuSans-4c" transform="translate(68.408203 0)"/>
     </g>
    </g>
    <g id="line2d_14">
     <path d="M 36.878125 49.654687 
L 46.878125 49.654687 
L 56.878125 49.654687 
" style="fill: none; stroke: #32cd32; stroke-opacity: 0.8; stroke-width: 1.5; stroke-linecap: square"/>
    </g>
    <g id="text_8">
     <!-- gc -->
     <g transform="translate(64.878125 53.154687) scale(0.1 -0.1)">
      <use xlink:href="#DejaVuSans-67"/>
      <use xlink:href="#DejaVuSans-63" transform="translate(63.476562 0)"/>
     </g>
    </g>
    <g id="line2d_15">
     <path d="M 36.878125 64.332813 
L 46.878125 64.332813 
L 56.878125 64.332813 
" style="fill: none; stroke: #dc143c; stroke-opacity: 0.8; stroke-width: 1.5; stroke-linecap: square"/>
    </g>
    <g id="text_9">
     <!-- pp -->
     <g transform="translate(64.878125 67.832813) scale(0.1 -0.1)">
      <use xlink:href="#DejaVuSans-70"/>
      <use xlink:href="#DejaVuSans-70" transform="translate(63.476562 0)"/>
     </g>
    </g>
    <g id="line2d_16">
     <path d="M 36.878125 79.010938 
L 46.878125 79.010938 
L 56.878125 79.010938 
" style="fill: none; stroke: #6495ed; stroke-opacity: 0.8; stroke-width: 1.5; stroke-linecap: square"/>
    </g>
    <g id="text_10">
     <!-- Cm -->
     <g transform="translate(64.878125 82.510938) scale(0.1 -0.1)">
      <use xlink:href="#DejaVuSans-43"/>
      <use xlink:href="#DejaVuSans-6d" transform="translate(69.824219 0)"/>
     </g>
    </g>
    <g id="patch_6">
     <path d="M 36.878125 97.189063 
L 56.878125 97.189063 
L 56.878125 90.189063 
L 36.878125 90.189063 
z
" style="fill: #808080; fill-opacity: 0.3; stroke: #808080; stroke-opacity: 0.3; stroke-linejoin: miter"/>
    </g>
    <g id="text_11">
     <!-- expected under uniformity -->
     <g transform="translate(64.878125 97.189063) scale(0.1 -0.1)">
      <defs>
       <path id="DejaVuSans-78" d="M 3513 3500 
L 2247 1797 
L 3578 0 
L 2900 0 
L 1881 1375 
L 863 0 
L 184 0 
L 1544 1831 
L 300 3500 
L 978 3500 
L 1906 2253 
L 2834 3500 
L 3513 3500 
z
" transform="scale(0.015625)"/>
       <path id="DejaVuSans-64" d="M 2906 2969 
L 2906 4863 
L 3481 4863 
L 3481 0 
L 2906 0 
L 2906 525 
Q 2725 213 2448 61 
Q 2172 -91 1784 -91 
Q 1150 -91 751 415 
Q 353 922 353 1747 
Q 353 2572 751 3078 
Q 1150 3584 1784 3584 
Q 2172 3584 2448 3432 
Q 2725 3281 2906 2969 
z
M 947 1747 
Q 947 1113 1208 752 
Q 1469 391 1925 391 
Q 2381 391 2643 752 
Q 2906 1113 2906 1747 
Q 2906 2381 2643 2742 
Q 2381 3103 1925 3103 
Q 1469 3103 1208 2742 
Q 947 2381 947 1747 
z
" transform="scale(0.015625)"/>
       <path id="DejaVuSans-75" d="M 544 1381 
L 544 3500 
L 1119 3500 
L 1119 1403 
Q 1119 906 1312 657 
Q 1506 409 1894 409 
Q 2359 409 2629 706 
Q 2900 1003 2900 1516 
L 2900 3500 
L 3475 3500 
L 3475 0 
L 2900 0 
L 2900 538 
Q 2691 219 2414 64 
Q 2138 -91 1772 -91 
Q 1169 -91 856 284 
Q 544 659 544 1381 
z
M 1991 3584 
L 1991 3584 
z
" transform="scale(0.015625)"/>
       <path id="DejaVuSans-66" d="M 2375 4863 
L 2375 4384 
L 1825 4384 
Q 1516 4384 1395 4259 
Q 1275 4134 1275 3809 
L 1275 3500 
L 2222 3500 
L 2222 3053 
L 1275 3053 
L 1275 0 
L 697 0 
L 697 3053 
L 147 3053 
L 147 3500 
L 697 3500 
L 697 3744 
Q 697 4328 969 4595 
Q 1241 4863 1831 4863 
L 2375 4863 
z
" transform="scale(0.015625)"/>
       <path id="DejaVuSans-79" d="M 2059 -325 
Q 1816 -950 1584 -1140 
Q 1353 -1331 966 -1331 
L 506 -1331 
L 506 -850 
L 844 -850 
Q 1081 -850 1212 -737 
Q 1344 -625 1503 -206 
L 1606 56 
L 191 3500 
L 800 3500 
L 1894 763 
L 2988 3500 
L 3597 3500 
L 2059 -325 
z
" transform="scale(0.015625)"/>
      </defs>
      <use xlink:href="#DejaVuSans-65"/>
      <use xlink:href="#DejaVuSans-78" transform="translate(59.773438 0)"/>
      <use xlink:href="#DejaVuSans-70" transform="translate(118.953125 0)"/>
      <use xlink:href="#DejaVuSans-65" transform="translate(182.429688 0)"/>
      <use xlink:href="#DejaVuSans-63" transform="translate(243.953125 0)"/>
      <use xlink:href="#DejaVuSans-74" transform="translate(298.933594 0)"/>
      <use xlink:href="#DejaVuSans-65" transform="translate(338.142578 0)"/>
      <use xlink:href="#DejaVuSans-64" transform="translate(399.666016 0)"/>
      <use xlink:href="#DejaVuSans-20" transform="translate(463.142578 0)"/>
      <use xlink:href="#DejaVuSans-75" transform="translate(494.929688 0)"/>
      <use xlink:href="#DejaVuSans-6e" transform="translate(558.308594 0)"/>
      <use xlink:href="#DejaVuSans-64" transform="translate(621.6875 0)"/>
      <use xlink:href="#DejaVuSans-65" transform="translate(685.164062 0)"/>
      <use xlink:href="#DejaVuSans-72" transform="translate(746.6875 0)"/>
      <use xlink:href="#DejaVuSans-20" transform="translate(787.800781 0)"/>
      <use xlink:href="#DejaVuSans-75" transform="translate(819.587891 0)"/>
      <use xlink:href="#DejaVuSans-6e" transform="translate(882.966797 0)"/>
      <use xlink:href="#DejaVuSans-69" transform="translate(946.345703 0)"/>
      <use xlink:href="#DejaVuSans-66" transform="translate(974.128906 0)"/>
      <use xlink:href="#DejaVuSans-6f" transform="translate(1009.333984 0)"/>
      <use xlink:href="#DejaVuSans-72" transform="translate(1070.515625 0)"/>
      <use xlink:href="#DejaVuSans-6d" transform="translate(1109.878906 0)"/>
      <use xlink:href="#DejaVuSans-69" transform="translate(1207.291016 0)"/>
      <use xlink:href="#DejaVuSans-74" transform="translate(1235.074219 0)"/>
      <use xlink:href="#DejaVuSans-79" transform="translate(1274.283203 0)"/>
     </g>
    </g>
   </g>
  </g>
 </g>
 <defs>
  <clipPath id="pa161e4de25">
   <rect x="27.878125" y="7.2" width="279" height="166.32"/>
  </clipPath>
 </defs>
</svg>
